<?xml version="1.0" encoding="utf-8"?>
<!-- Generator: Adobe Illustrator 12.0.1, SVG Export Plug-In . SVG Version: 6.00 Build 51448)  -->
<!DOCTYPE svg PUBLIC "-//W3C//DTD SVG 1.0//EN" "http://www.w3.org/TR/2001/REC-SVG-20010904/DTD/svg10.dtd" [
	<!ENTITY ns_svg "http://www.w3.org/2000/svg">
	<!ENTITY ns_xlink "http://www.w3.org/1999/xlink">
]>
<svg  version="1.0" id="Layer_1" xmlns="&ns_svg;" xmlns:xlink="&ns_xlink;" width="494.445" height="510.555"
	 viewBox="16.002 55.572 494.445 510.555" overflow="visible" enable-background="new 16.002 55.572 494.445 510.555"
	 xml:space="preserve">
<g transform="translate(200,200)">
	<g>
		<path fill="#FFFFFF" stroke="#000000" stroke-width="0.172" d="M-122.304,84.285c0,0,0.101,1.894-0.723,1.875
			c-0.824-0.019-17.278-48.094-37.806-45.851C-160.833,40.309-143.05,32.956-122.304,84.285z"/>
	</g>
	<g>
		<path fill="#FFFFFF" stroke="#000000" stroke-width="0.172" d="M-118.774,81.262c0,0-0.549,1.816-1.318,1.517
			c-0.768-0.298,0.115-51.104-19.951-55.978C-140.043,26.801-120.82,25.937-118.774,81.262z"/>
	</g>
	<g>
		<path fill="#FFFFFF" stroke="#000000" stroke-width="0.172" d="M-91.284,123.59c0,0,1.636,0.96,1.166,1.637
			c-0.471,0.677-49.645-12.125-59.1,6.232C-149.218,131.459-145.539,112.572-91.284,123.59z"/>
	</g>
	<g>
		<path fill="#FFFFFF" stroke="#000000" stroke-width="0.172" d="M-94.093,133.801c0,0,1.856,0.396,1.622,1.187
			c-0.233,0.791-50.936,4.133-54.126,24.534C-146.597,159.522-149.055,140.437-94.093,133.801z"/>
	</g>
	<g>
		<path fill="#FFFFFF" stroke="#000000" stroke-width="0.172" d="M-98.304,128.276c0,0,1.778,0.663,1.432,1.411
			c-0.346,0.748-50.994-3.341-57.126,16.377C-153.998,146.064-153.646,126.825-98.304,128.276z"/>
	</g>
	<g>
		<path fill="#FFFFFF" stroke="#000000" stroke-width="0.172" d="M-109.009,110.072c0,0,1.308,1.374,0.669,1.895
			c-0.639,0.521-44.382-25.333-58.529-10.291C-166.869,101.676-158.128,84.533-109.009,110.072z"/>
	</g>
	<g>
		<path fill="#FFFFFF" stroke="#000000" stroke-width="0.172" d="M-116.554,114.263c0,0,1.456,1.217,0.88,1.808
			c-0.576,0.59-46.964-20.149-59.318-3.602C-174.992,112.469-168.247,94.447-116.554,114.263z"/>
	</g>
	<g>
		<path fill="#FFFFFF" stroke="#000000" stroke-width="0.172" d="M-119.154,118.335c0,0,1.608,1.008,1.118,1.671
			c-0.49,0.663-49.272-13.56-59.255,4.516C-177.291,124.522-173.066,105.749-119.154,118.335z"/>
	</g>
	<g>
		<path fill="#FFFFFF" stroke="#000000" stroke-width="0.172" d="M-108.42,118.949c0,0,1.122,1.531,0.421,1.966
			s-40.77-30.813-56.728-17.708C-164.727,103.207-153.862,87.326-108.42,118.949z"/>
	</g>
	<g>
		<path fill="#FFFFFF" stroke="#000000" stroke-width="0.172" d="M-128.2,90c0,0,0.6,1.8-0.2,2c-0.8,0.2-29.4-41.8-48.601-34.2
			C-177.001,57.8-161.8,46-128.2,90z"/>
	</g>
	<g>
		<path fill="#FFFFFF" stroke="#000000" stroke-width="0.172" d="M-127.505,96.979c0,0,0.975,1.629,0.236,1.996
			c-0.738,0.368-37.723-34.476-54.832-22.914C-182.101,76.061-169.804,61.261-127.505,96.979z"/>
	</g>
	<g>
		<path fill="#FFFFFF" stroke="#000000" stroke-width="0.172" d="M-127.62,101.349c0,0,1.122,1.531,0.421,1.966
			c-0.701,0.434-40.77-30.813-56.728-17.708C-183.927,85.607-173.062,69.726-127.62,101.349z"/>
	</g>
	<g>
		<path fill="#FFFFFF" stroke="#000000" d="M-129.83,103.065c0.503,6.048,1.491,12.617,3.23,15.736c0,0-3.6,12.4,5.2,25.6
			c0,0-0.4,7.2,1.2,10.4c0,0,4,8.4,8.8,9.2c3.884,0.647,12.607,3.716,22.468,5.12c0,0,17.132,14.08,13.932,26.88c0,0-0.4,16.4-4,18
			c0,0,11.6-11.2,2,5.6l-4.4,18.801c0,0,25.6-21.601,10-3.2l-10,26c0,0,19.6-18.4,12.4-10l-3.2,8.8c0,0,43.2-27.2,12.4,2.4
			c0,0,8-3.601,12.4-0.801c0,0,6.8-1.199,6,0.4c0,0-20.8,10.4-24.4,28.8c0,0,8.4-10,5.2,0.8l0.4,11.601c0,0,4-21.601,3.6,16
			c0,0,19.2-18,7.6,2.8v16.8c0,0,15.2-16.399,8.8-3.6c0,0,10-8.8,6,6.399c0,0-0.8,10.4,3.6-0.8c0,0,16-30.6,10-4.399
			c0,0-0.8,19.199,4,4.399c0,0,0.4,10.4,9.6,17.601c0,0-1.2-50.801,11.6-14.801l4,16.4c0,0,2.8-9.2,2.4-14.4c0,0,14.8-16.399,8,8
			c0,0,15.2-22.8,12-9.6c0,0-7.6,16-6,20.8c0,0,16.8-34.8,18-36.399c0,0-2,42.4,8.8,6.399c0,0,5.6,12,2.8,16.4c0,0,8-8,7.2-11.2
			c0,0,4.6-8.2,7.4,5.4c0,0,1.8,9.399,3.4,6.199c0,0,4,24.001,5.2,1.2c0,0,1.6-13.6-5.6-25.2c0,0,0.8-3.199-2-7.199
			c0,0,13.6,21.6,6.4-7.2c0,0,11.201,8,12.401,8c0,0-13.601-23.2-4.801-18.4c0,0-5.2-10.399,12.801,1.601c0,0-16.001-16,1.6-6.4
			c0,0,8,6.4,0.4-3.6c0,0-14.401-16,7.601,2c0,0,11.6,16.399,12.399,19.199c0,0-10-29.199-14.4-32c0,0,8.4-36.399,49.6-20.8
			c0,0,6.8,17.2,11.2-1.2c0,0,12.8-6.399,24,21.2c0,0,4-13.6,3.199-16.399c0,0,6.801,1.199,6,0c0,0,13.2,4.399,14.4,3.6
			c0,0,6.8,6.8,7.2,3.2c0,0,9.2,2.8,7.2-0.8c0,0,8.8,15.6,9.199,19.199l2.4-14l2,2.801c0,0,1.6-7.601,0.8-8.801
			c-0.8-1.199,20,6.801,24.8,27.601l2,8.399c0,0,6-14.8,4.4-18.8c0,0,5.2,0.8,5.6,5.2c0,0,4-23.2-0.8-29.2c0,0,4.4-0.8,5.601,2.8
			v-7.199c0,0,7.199,0.8,7.199-1.601c0,0,4.4-4,6.4,0.8c0,0-12.4-35.199,6-16c0,0,7.2,10.801,3.6-8c-3.6-18.8-7.6-20.399-2.8-20.8
			c0,0,0.8-3.6-1.2-5.2c-2-1.6,1.2,0,1.2,0s4.8,4-0.399-18c0,0,6.399,1.6-5.601-27.6c0,0,2.8-2.4-1.2-10.8c0,0,8,4.4,10.801,2.8
			c0,0-0.4-1.6-3.601-5.6c0,0-21.6-54.801-1.2-32.8c0,0,11.851,13.55,5.45-9.25c0,0-9.11-24.01-8.334-28.306L-129.83,103.065z"/>
	</g>
	<g>
		<path fill="#CC7226" stroke="#000000" d="M299.717,80.245c0.628,0.181,2.834,1.305,4.084,2.955c0,0,6.8,10.8,1.601-7.6
			c0,0-9.2-28.8-0.4-17.6c0,0,6,7.2,2.8-6.4c-3.865-16.427-6.399-22.8-6.399-22.8s11.6,4.8-15.2-34.8l8.8,3.6
			c0,0-19.6-39.6-41.2-44.8l-8-6c0,0,38.4-38,25.601-74.8c0,0-6.801-5.2-16.4,4c0,0-6.4,4.8-12.4,3.2c0,0-30.8,1.2-32.8,1.2
			s-36.8-37.2-102.399-19.6c0,0-5.2,2-9.601,0.8c0,0-18.401-16-67.201,6.8c0,0-10,2-11.6,2s-4.4,0-12.4,6.4c-8,6.4-8.4,7.2-10.4,8.8
			c0,0-16.4,11.2-21.2,12c0,0-11.6,6.4-16,16.4l-3.6,1.2c0,0-1.6,7.2-2,8.4c0,0-4.8,3.6-5.6,9.2c0,0-8.8,6-8.4,10.4
			c0,0-1.6,5.2-2.4,10c0,0-7.2,4.8-6.4,7.6c0,0-7.6,14-6.4,20.8c0,0-6.4-0.4-9.2,2c0,0-0.8,4.8-2.4,5.2c0,0-2.8,1.2-0.4,5.2
			c0,0-1.6,2.8-2,4.4c0,0,0.8,2.8-3.6,8.4c0,0-6.4,18.8-4.4,24c0,0,0.4,4.8-2.4,6.4c0,0-3.6-0.4,4.8,11.6c0,0,0.8,1.2-2.4,3.6
			c0,0-17.2,3.6-19.6,20c0,0-13.6,14.8-13.6,20c0,2.305,0.271,5.452,0.97,10.065c0,0-0.57,8.336,27.03,9.136
			C-75.4,112.401,299.717,80.245,299.717,80.245z"/>
	</g>
	<g>
		<path fill="#CC7226" d="M-115.6,102.6c-25-39.4-10.6,17.001-10.6,17.001c8.8,34.4,138.4-3.2,138.4-3.2S181.001,86,192.201,82
			s106.399,2.4,106.399,2.4l-5.6-16.8c-64.8-46.4-84-23.2-97.6-27.2c-13.601-4-11.2,5.6-14.4,6.4c-3.2,0.8-42.4-24-48.8-23.2
			c-6.4,0.8-31.742-22.951-16.8,8.8c16,34-58.401,39.2-75.201,28c-16.8-11.2,7.2,18.4,7.2,18.4c18.4,20-16,3.2-16,3.2
			C-3,69.2-27,94.8-30.2,95.6c-3.2,0.8-8,4-8.8-2.4c-0.8-6.4-8.31-23.101-40,3.2c-20,16.601-33.8-5.4-33.8-5.4L-115.6,102.6z"/>
	</g>
	<g>
		<path fill="#E87F3A" d="M133.51,25.346c-6.399,0.8-31.767-22.939-16.8,8.8c16.6,35.2-58.4,39.2-75.2,28
			c-16.801-11.2,7.2,18.4,7.2,18.4c18.4,20-16.001,3.2-16.001,3.2c-34.4-12.8-58.4,12.8-61.6,13.6c-3.2,0.8-8,4-8.8-2.4
			c-0.8-6.4-8.179-22.934-40,3.2c-21.236,17.346-34.727-4.109-34.727-4.109l-3.2,10.109c-25-39.8-9.928,18.509-9.928,18.509
			c8.801,34.401,139.055-4.509,139.055-4.509s168.801-30.4,180.001-34.4s105.528,2.327,105.528,2.327l-5.528-17.309
			c-64.8-46.4-83.2-22.618-96.8-26.618s-11.2,5.6-14.4,6.4C179.11,49.346,139.91,24.546,133.51,25.346z"/>
	</g>
	<g>
		<path fill="#EA8C4D" d="M134.819,27.091c-6.4,0.8-31.134-23.229-16.801,8.8c16.2,36.201-58.399,39.201-75.2,28.001
			c-16.8-11.2,7.2,18.4,7.2,18.4c18.4,20-16,3.2-16,3.2c-34.4-12.8-58.401,12.8-61.601,13.6c-3.2,0.8-8,4-8.8-2.4
			c-0.8-6.4-8.048-22.767-40,3.2c-22.473,18.091-35.654-2.818-35.654-2.818l-3.6,8.618c-23.8-39-9.255,20.018-9.255,20.018
			c8.8,34.4,139.71-5.818,139.71-5.818s168.8-30.4,180-34.4c11.199-4,104.654,2.254,104.654,2.254l-5.454-17.818
			c-64.801-46.4-82.4-22.037-96.001-26.037c-13.6-4-11.199,5.6-14.399,6.401C180.419,51.092,141.219,26.291,134.819,27.091z"/>
	</g>
	<g>
		<path fill="#EC9961" d="M136.128,28.837c-6.4,0.8-31.129-23.232-16.8,8.8c16.8,37.556-58.934,38.845-75.2,28
			c-16.8-11.2,7.2,18.4,7.2,18.4c18.4,20-16,3.2-16,3.2c-34.4-12.8-58.4,12.8-61.6,13.6c-3.2,0.8-8,4-8.8-2.4
			c-0.8-6.4-7.917-22.598-40.001,3.2c-23.709,18.837-36.582-1.527-36.582-1.527l-4,7.127c-21.8-36.8-8.581,21.528-8.581,21.528
			c8.8,34.4,140.364-7.128,140.364-7.128s168.8-30.4,180.001-34.4c11.2-4,103.782,2.182,103.782,2.182l-5.382-18.327
			c-64.801-46.401-81.601-21.455-95.2-25.455c-13.602-4-11.201,5.6-14.401,6.4C181.728,52.837,142.528,28.037,136.128,28.837z"/>
	</g>
	<g>
		<path fill="#EEA575" d="M137.438,30.583c-6.4,0.8-30.623-23.454-16.801,8.8c16.801,39.2-58.4,39.2-75.2,28
			c-16.8-11.2,7.2,18.4,7.2,18.4c18.4,20-16,3.2-16,3.2c-34.4-12.8-58.4,12.8-61.6,13.6c-3.2,0.8-8,4-8.8-2.4
			c-0.8-6.4-7.785-22.431-40,3.2c-24.946,19.582-37.51-0.237-37.51-0.237l-4.4,5.637c-19.8-34.801-7.909,23.036-7.909,23.036
			c8.8,34.401,141.019-8.436,141.019-8.436s168.801-30.4,180-34.4c11.2-4,102.909,2.109,102.909,2.109l-5.309-18.837
			c-64.8-46.4-80.8-20.872-94.4-24.872c-13.6-4-11.2,5.6-14.399,6.4C183.038,54.583,143.838,29.783,137.438,30.583z"/>
	</g>
	<g>
		<path fill="#F1B288" d="M138.747,32.328c-6.4,0.8-32.364-22.651-16.8,8.8c19.2,38.8-58.401,39.2-75.201,28
			c-16.8-11.2,7.2,18.4,7.2,18.4c18.4,20-16,3.2-16,3.2c-34.4-12.8-58.4,12.8-61.6,13.6c-3.2,0.8-8,4-8.8-2.4
			c-0.8-6.4-7.654-22.263-40,3.2c-26.182,20.328-38.437,1.055-38.437,1.055l-4.8,4.145c-18-33.2-7.236,24.546-7.236,24.546
			c8.8,34.4,141.673-9.746,141.673-9.746s168.801-30.4,180.001-34.4s102.036,2.036,102.036,2.036l-5.236-19.345
			c-64.8-46.4-80-20.291-93.6-24.291c-13.601-4-11.2,5.6-14.4,6.4C184.347,56.328,145.147,31.528,138.747,32.328z"/>
	</g>
	<g>
		<path fill="#F3BF9C" d="M140.056,34.073c-6.4,0.8-32.743-22.46-16.801,8.8c20.401,40.001-58.4,39.201-75.2,28.001
			c-16.8-11.2,7.2,18.4,7.2,18.4c18.4,20-16,3.2-16,3.2c-34.4-12.8-58.4,12.8-61.6,13.6c-3.2,0.8-8,4-8.8-2.4
			c-0.8-6.4-7.523-22.096-40,3.2c-27.419,21.073-39.364,2.345-39.364,2.345l-5.2,2.655c-16-30.2-6.564,26.055-6.564,26.055
			c8.8,34.4,142.328-11.055,142.328-11.055s168.801-30.4,180-34.4c11.2-4,101.164,1.963,101.164,1.963l-5.164-19.854
			c-64.8-46.4-79.199-19.709-92.8-23.709c-13.6-4.001-11.2,5.6-14.399,6.4C185.656,58.074,146.456,33.273,140.056,34.073z"/>
	</g>
	<g>
		<path fill="#F5CCB0" d="M141.365,35.819c-6.4,0.8-33.842-21.875-16.8,8.8c22,39.6-58.401,39.2-75.202,28
			c-16.8-11.2,7.2,18.4,7.2,18.4c18.4,20-16,3.2-16,3.2c-34.4-12.8-58.4,12.8-61.6,13.6c-3.2,0.8-8,4-8.8-2.4
			c-0.8-6.4-7.391-21.927-40,3.2c-28.655,21.819-40.291,3.637-40.291,3.637l-5.6,1.163c-14.401-28.4-5.891,27.564-5.891,27.564
			c8.8,34.401,142.982-12.364,142.982-12.364s168.801-30.4,180.001-34.4s100.291,1.891,100.291,1.891l-5.091-20.364
			c-64.801-46.4-78.4-19.127-92-23.127c-13.601-4-11.2,5.6-14.4,6.4C186.965,59.819,147.765,35.019,141.365,35.819z"/>
	</g>
	<g>
		<path fill="#F8D8C4" d="M142.674,37.565c-6.399,0.8-33.842-21.876-16.8,8.8c22,39.6-58.4,39.2-75.2,28
			c-16.8-11.2,7.2,18.4,7.2,18.4c18.4,20-16,3.2-16,3.2c-34.401-12.8-58.401,12.8-61.601,13.6c-3.2,0.8-8,4-8.8-2.4
			c-0.8-6.4-7.259-21.76-40,3.2c-29.891,22.564-41.218,4.928-41.218,4.928l-6-0.328c-13.601-26.401-5.218,29.073-5.218,29.073
			c8.8,34.4,143.636-13.673,143.636-13.673s168.801-30.4,180.001-34.4s99.419,1.818,99.419,1.818l-5.018-20.873
			c-64.801-46.4-77.602-18.545-91.201-22.545s-11.2,5.6-14.4,6.4C188.274,61.565,149.074,36.765,142.674,37.565z"/>
	</g>
	<g>
		<path fill="#FAE5D7" d="M143.983,39.31c-6.4,0.8-33.454-22.087-16.801,8.8c22,40.8-58.399,39.2-75.2,28
			c-16.8-11.2,7.2,18.4,7.2,18.4c18.4,20-16,3.2-16,3.2c-34.4-12.8-58.4,12.8-61.6,13.6c-3.201,0.8-8.001,4-8.801-2.4
			c-0.8-6.4-7.128-21.592-40,3.2c-31.127,23.31-42.145,6.219-42.145,6.219l-6.401-1.819c-13-24-4.545,30.583-4.545,30.583
			c8.8,34.4,144.292-14.983,144.292-14.983s168.8-30.4,180-34.4c11.199-4,98.546,1.746,98.546,1.746l-4.946-21.382
			c-64.8-46.401-76.8-17.964-90.4-21.964c-13.6-4-11.199,5.6-14.399,6.4C189.583,63.31,150.383,38.51,143.983,39.31z"/>
	</g>
	<g>
		<path fill="#FCF2EB" d="M145.292,41.055c-6.4,0.8-32.375-22.644-16.8,8.8c21.2,42.801-58.4,39.201-75.2,28.001
			c-16.8-11.2,7.2,18.4,7.2,18.4c18.4,20-16,3.2-16,3.2c-34.4-12.8-58.4,12.8-61.6,13.6c-3.2,0.8-8,4-8.8-2.4
			c-0.8-6.4-6.997-21.424-40,3.2c-32.365,24.055-43.074,7.509-43.074,7.509l-6.8-3.309c-12.8-23.2-3.872,32.091-3.872,32.091
			c8.8,34.4,144.946-16.291,144.946-16.291s168.801-30.4,180.001-34.4s97.672,1.672,97.672,1.672l-4.872-21.891
			c-64.801-46.4-76-17.381-89.6-21.381c-13.601-4.001-11.2,5.6-14.4,6.4C190.892,65.056,151.692,40.255,145.292,41.055z"/>
	</g>
	<g>
		<path fill="#FFFFFF" d="M-115.8,119.601c-12.8-22.001-3.2,33.6-3.2,33.6c8.8,34.4,145.6-17.6,145.6-17.6
			s168.801-30.401,180-34.401c11.2-4,96.801,1.6,96.801,1.6l-4.801-22.4c-64.8-46.4-75.199-16.8-88.8-20.8
			c-13.6-4-11.2,5.6-14.399,6.4c-3.2,0.8-42.4-24-48.801-23.2c-6.399,0.8-31.619-23.007-16.8,8.8
			c22.228,47.707-60.76,37.627-75.201,28C37.8,68.4,61.8,98,61.8,98c18.4,20.001-16,3.2-16,3.2c-34.4-12.8-58.4,12.801-61.6,13.601
			c-3.2,0.8-8,4-8.8-2.4c-0.8-6.401-6.865-21.257-40,3.2c-33.6,24.8-44,8.8-44,8.8L-115.8,119.601z"/>
	</g>
	<g>
		<path d="M-74.2,149.601c0,0-7.2,11.6,13.6,24.8c0,0,1.4,1.4-16.6-2.8c0,0-6.2-2-7.8-12.4c0,0-4.8-4.4-9.6-10
			C-99.4,143.601-74.2,149.601-74.2,149.601z"/>
	</g>
	<g>
		<path fill="#CCCCCC" d="M65.8,102c0,0,17.698,26.821,17.1,31.601c-1.3,10.4-1.5,20,1.7,24c3.201,4,12.001,37.2,12.001,37.2
			s-0.4,1.2,12-36.8c0,0,11.601-16-8.399-34.4C100.201,123.601,65,94.8,65.8,102z"/>
	</g>
	<g>
		<path d="M-54.2,176.401c0,0,11.2,7.2-3.2,38.4l6.4-2.399c0,0-0.8,11.199-4,13.6l7.2-3.2c0,0,4.8,8,0.8,12.8c0,0,16.8,8,16,14.4
			c0,0,6.4-8,2.4-14.4c-4-6.399-11.2-2.399-10.4-20.8l-8.8,3.2c0,0,5.6-8.8,5.6-15.2l-8,2.4c0,0,15.469-26.578,4.8-28
			C-51.4,176.401-54.2,176.401-54.2,176.401z"/>
	</g>
	<g>
		<path fill="#CCCCCC" d="M-21.8,193.201c0,0,2.8-4.4,0-3.6c-2.8,0.8-34,15.6-40,25.2C-61.8,214.801-27.4,190.401-21.8,193.201z"/>
	</g>
	<g>
		<path fill="#CCCCCC" d="M-11.4,201.201c0,0,2.8-4.4,0-3.601c-2.8,0.801-34,15.601-40,25.2C-51.4,222.801-17,198.401-11.4,201.201z
			"/>
	</g>
	<g>
		<path fill="#CCCCCC" d="M1.8,186.001c0,0,2.8-4.4,0-3.6c-2.8,0.8-34,15.6-40,25.2C-38.2,207.601-3.8,183.201,1.8,186.001z"/>
	</g>
	<g>
		<path fill="#CCCCCC" d="M-21.4,229.601c0,0,0-6-2.8-5.199c-2.8,0.8-38.8,18.399-44.8,28C-69,252.401-27,226.801-21.4,229.601z"/>
	</g>
	<g>
		<path fill="#CCCCCC" d="M-20.2,218.801c0,0,1.2-4.8-1.6-4c-2,0-28.4,11.601-34.4,21.2C-56.2,236.001-26.6,214.401-20.2,218.801z"
			/>
	</g>
	<g>
		<path fill="#CCCCCC" d="M-34.6,266.401l-10,7.6c0,0,10.4-7.6,14-6.4c0,0-6.8,11.2-7.6,16.4c0,0,10.4-12.8,16-12.4
			c0,0,7.6,0.4,7.6,11.2c0,0,5.6-10.399,8.8-10c0,0,1.2,6.4,0,13.2c0,0,4-7.6,8-6c0,0,6.4-2,5.6,9.6c0,0,0,10.4-0.8,13.2
			c0,0,5.6-26.399,8-26.8c0,0,8-1.2,12.8,7.6c0,0-4-7.6,0.8-5.6c0,0,10.8,1.6,14,8.4c0,0-6.8-12-1.2-8.801c0,0,6.8,0,8,6.4
			c0,0,8.4,21.2,10.4,22.8c0,0-7.6-21.6-6-21.6c0,0-2-12,3.2,2.8c0,0-3.2-14,2.4-13.2s10,10.8,18.4,8.4c0,0,9.601,5.6,11.601-63.601
			L-34.6,266.401z"/>
	</g>
	<g>
		<path d="M-29.8,173.601c0,0,14.8-6,54.8,0c0,0,7.2,0.4,14-8.4c6.8-8.8,33.6-16,40-14l9.601,6.4l0.8,1.2c0,0,12.4,10.4,12.8,18
			c0.4,7.6-14.4,55.601-24.001,71.601c-9.6,16-19.2,28.399-38.4,26c0,0-20.8-4-46.4,0c0,0-29.2-1.601-32-9.601
			c-2.8-8,11.2-23.2,11.2-23.2s4.4-8.399,3.2-22.8C-25.4,204.401-25,176.401-29.8,173.601z"/>
	</g>
	<g>
		<path fill="#E5668C" d="M-7.8,175.601c8.4,18.4-21.2,83.6-21.2,83.6c-2,1.6,12.66,7.645,22.8,5.2c10.946-2.639,51.2,1.6,51.2,1.6
			c23.6-15.6,36.4-60,36.4-60s10.401-24-7.2-27.2C56.6,175.601-7.8,175.601-7.8,175.601z"/>
	</g>
	<g>
		<path fill="#B23259" d="M-9.831,206.497c3.326-12.79,4.91-24.591,2.031-30.896c0,0,62.4,6.4,73.6-14.4
			c4.241-7.875,19.001,22.8,18.6,32.4c0,0-63,14.4-77.8,3.2L-9.831,206.497z"/>
	</g>
	<g>
		<path fill="#A5264C" d="M-5.4,222.801c0,0,2,7.2-0.4,11.2c0,0-1.6,0.8-2.8,1.2c0,0,1.2,3.6,7.2,5.2c0,0,2,4.399,4.4,4.8
			c2.4,0.399,7.2,6,11.2,4.8s15.2-5.2,15.2-5.2s5.6-3.2,14.4,0.4c0,0,2.375-0.802,2.8-4.8c0.5-4.7,3.6-8.4,5.6-10.4
			s11.6-14.8,10.4-15.2C61.4,214.401-5.4,222.801-5.4,222.801z"/>
	</g>
	<g>
		<path fill="#FF727F" stroke="#000000" d="M-9.8,174.401c0,0-2.8,22.4,0.4,30.8c3.2,8.399,2.4,10.399,1.6,14.399
			c-0.8,4,3.6,14,9.2,20l12,1.601c0,0,15.2-3.601,24.4-0.8c0,0,8.994,1.343,12.4-13.601c0,0,4.8-6.399,12-9.2
			c7.2-2.8,14.4-44.399,10.4-52.399s-18.4-12.4-34.4,3.2S20.2,167.201-9.8,174.401z"/>
	</g>
	<g>
		<path fill="#FFFFCC" stroke="#000000" stroke-width="0.5" d="M-8.2,249.201c0,0-0.8-2-5.2-2.4c0,0-22.4-3.6-30.8-16
			c0,0-6.8-5.6-2.4,6c0,0,10.4,20.4,17.2,23.2C-29.4,260.001-13,264.001-8.2,249.201z"/>
	</g>
	<g>
		<path fill="#CC3F4C" d="M71.742,185.229c0.659-7.906,2.612-16.52,0.858-20.028c-6.446-12.894-23.419-7.506-34.4,3.2
			c-16,15.6-18-1.2-48,6c0,0-1.745,13.963-0.905,23.975c0,0,37.305-11.575,38.105-5.975c0,0,1.6-3.2,10.8-3.2
			C47.4,189.201,70.142,188.029,71.742,185.229z"/>
	</g>
	<g>
		<path fill="none" stroke="#A51926" stroke-width="2" d="M28.6,175.201c0,0,4.8,4.8,1.2,14.4c0,0-14.4,16-12.4,30"/>
	</g>
	<g>
		<path fill="#FFFFCC" stroke="#000000" stroke-width="0.5" d="M-19.4,260.001c0,0-4.4-12.8,4.4-6c0,0,4.8,2,3.6,3.6
			C-12.6,259.201-18.2,263.201-19.4,260.001z"/>
	</g>
	<g>
		<path fill="#FFFFCC" stroke="#000000" stroke-width="0.5" d="M-14.36,261.201c0,0-3.52-10.24,3.52-4.8c0,0,4.421,2.447,2.88,2.88
			C-12.52,260.561-7.96,263.121-14.36,261.201z"/>
	</g>
	<g>
		<path fill="#FFFFCC" stroke="#000000" stroke-width="0.5" d="M-9.56,261.201c0,0-3.52-10.24,3.52-4.8c0,0,4.375,2.31,2.88,2.88
			C-6.52,260.561-3.16,263.121-9.56,261.201z"/>
	</g>
	<g>
		<path fill="#FFFFCC" stroke="#000000" stroke-width="0.5" d="M-2.96,261.401c0,0-3.52-10.24,3.52-4.801
			c0,0,4.383,2.332,2.881,2.881C0.48,260.561,3.441,263.321-2.96,261.401z"/>
	</g>
	<g>
		<path fill="#FFFFCC" stroke="#000000" stroke-width="0.5" d="M3.52,261.321c0,0-3.52-10.24,3.521-4.8c0,0,3.84,1.6,2.88,2.88
			C8.961,260.681,9.921,263.241,3.52,261.321z"/>
	</g>
	<g>
		<path fill="#FFFFCC" stroke="#000000" stroke-width="0.5" d="M10.2,262.001c0,0-4.8-12.4,4.4-6c0,0,4.8,2,3.6,3.6
			C17,261.201,18.2,264.401,10.2,262.001z"/>
	</g>
	<g>
		<path fill="none" stroke="#A5264C" stroke-width="2" d="M-18.2,244.801c0,0,13.2-2.8,19.2,0.4c0,0,6,1.2,7.2,0.8
			c1.2-0.4,4.4-0.8,4.4-0.8"/>
	</g>
	<g>
		<path fill="none" stroke="#A5264C" stroke-width="2" d="M15.8,253.601c0,0,12-13.6,24-9.199c7.016,2.572,6-0.801,6.8-3.601
			c0.8-2.8,1-7,6-10"/>
	</g>
	<g>
		<path fill="#FFFFCC" stroke="#000000" stroke-width="0.5" d="M33,237.601c0,0-4-10.8-6.8,2c-2.8,12.801-6,16.4-7.6,19.2
			c0,0,0,5.2,8.4,4.8c0,0,10.8-0.399,11.2-3.199C38.6,257.601,37,246.001,33,237.601z"/>
	</g>
	<g>
		<path fill="none" stroke="#A5264C" stroke-width="2" d="M47,244.801c0,0,3.6-2.399,6-1.2"/>
	</g>
	<g>
		<path fill="none" stroke="#A5264C" stroke-width="2" d="M53.5,228.401c0,0,2.9-4.9,7.7-5.7"/>
	</g>
	<g>
		<path fill="#B2B2B2" d="M-25.8,265.201c0,0,18,3.2,22.4,1.6c0,0,8.8,0,0.4,2c0,0-12.8,0-20.8-1.2
			C-23.8,267.601-35.4,262.001-25.8,265.201z"/>
	</g>
	<g>
		<path fill="#FFFFCC" stroke="#000000" stroke-width="0.5" d="M-11.8,172.001c0,0,17.6,0,19.6,0.8c0,0,7.2,30.8,3.6,38.4
			c0,0-1.2,2.8-4-2.8c0,0-18.4-32.8-21.6-34.8C-17.4,171.601-13,172.001-11.8,172.001z"/>
	</g>
	<g>
		<path fill="#FFFFCC" stroke="#000000" stroke-width="0.5" d="M-88.9,169.301c0,0,8.9,1.7,21.5,4.3c0,0,4.8,22.4,8,27.2
			c3.2,4.8-0.4,4.8-4,2s-18.4-16.8-20.4-21.2S-88.9,169.301-88.9,169.301z"/>
	</g>
	<g>
		<path fill="#FFFFCC" stroke="#000000" stroke-width="0.5" d="M-67.039,173.818c0,0,5.8,1.548,6.809,3.763
			c1.008,2.214-1.202,5.511-1.202,5.511s-1,3.305-2.202,1.143C-64.836,182.072-67.708,174.412-67.039,173.818z"/>
	</g>
	<g>
		<path d="M-67,173.601c0,0,3.6,5.2,7.2,5.2c3.6,0,3.982-0.413,6.8,0.2c4.6,1,4.2-1,10.8,0.2c2.64,0.48,5.2-0.4,8,0.8
			c2.8,1.2,6,0.4,7.2-1.6s6-6.2,6-6.2s-12.8,1.8-15.6,2.6C-36.6,174.801-59,176.001-67,173.601z"/>
	</g>
	<g>
		<path fill="#FFFFCC" stroke="#000000" stroke-width="0.5" d="M-22.4,173.801c0,0-6.45,3.5-6.85,5.9c-0.4,2.4,5.25,6.1,5.25,6.1
			s2.75,4.6,3.35,2.2S-21.6,174.201-22.4,173.801z"/>
	</g>
	<g>
		<path fill="#FFFFCC" stroke="#000000" stroke-width="0.5" d="M-59.885,179.265c0,0,7.007,11.188,7.224-0.023
			c0,0,0.557-1.258-1.203-1.28C-59.939,177.886-58.418,173.784-59.885,179.265z"/>
	</g>
	<g>
		<path fill="#FFFFCC" stroke="#000000" stroke-width="0.5" d="M-52.707,179.514c0,0,7.921,11.187,7.285-0.093
			c0,0,0.007-0.332-1.746-0.485C-51.915,178.522-51.57,174.004-52.707,179.514z"/>
	</g>
	<g>
		<path fill="#FFFFCC" stroke="#000000" stroke-width="0.5" d="M-45.494,179.522c0,0,7.96,10.628,7.291,0.962
			c0,0,0.119-1.233-1.535-1.534C-43.63,178.244-43.841,174.995-45.494,179.522z"/>
	</g>
	<g>
		<path fill="#FFFFCC" stroke="#000000" stroke-width="0.5" d="M-38.618,179.602c0,0,7.9,11.561,8.248,1.78
			c0,0,1.644-1.378-0.102-1.6C-36.29,179.042-35.492,174.588-38.618,179.602z"/>
	</g>
	<g>
		<path fill="#E5E5B2" d="M-74.792,183.132l-7.658-1.531c-2.6-5-4.7-11.15-4.7-11.15s6.35,1,18.85,3.8c0,0,0.876,3.318,2.348,9.113
			L-74.792,183.132z"/>
	</g>
	<g>
		<path fill="#E5E5B2" d="M-9.724,178.47c-1.666-2.506-2.983-4.264-3.633-4.67c-3.013-1.883,1.13-1.506,2.259-1.506
			c0,0,16.571,0,18.454,0.753c0,0,0.524,2.242,1.208,5.633C8.564,178.68-1.524,176.67-9.724,178.47z"/>
	</g>
	<g>
		<path fill="#CC7226" d="M43.88,40.321c27.721,3.96,53.241-31.68,55.001-41.361c1.76-9.68-8.36-21.56-8.36-21.56
			c1.32-3.08-3.52-17.16-8.8-26.4C76.441-58.24,60.54-57.266,43-58.24C27.16-59.12,8.68-35.8,7.36-34.04
			c-1.32,1.76,4.84,40.041,6.16,45.761c1.32,5.72-1.32,32.12-1.32,32.12C46.44,34.741,16.16,36.361,43.88,40.321z"/>
	</g>
	<g>
		<path fill="#EA8E51" d="M8.088-33.392c-1.296,1.728,4.752,39.313,6.048,44.929c1.296,5.616-1.296,31.536-1.296,31.536
			c32.672-8.88,3.888-7.344,31.104-3.456C71.161,43.505,96.217,8.513,97.945-0.992c1.728-9.504-8.208-21.168-8.208-21.168
			c1.296-3.024-3.456-16.848-8.64-25.92c-5.184-9.072-20.795-8.115-38.017-9.072C27.528-58.016,9.384-35.12,8.088-33.392z"/>
	</g>
	<g>
		<path fill="#EFAA7C" d="M8.816-32.744c-1.272,1.696,4.664,38.585,5.936,44.097S13.48,42.305,13.48,42.305
			c31.404-9.16,3.816-7.208,30.528-3.392C70.721,42.729,95.313,8.385,97.009-0.944c1.696-9.328-8.056-20.776-8.056-20.776
			c1.272-2.968-3.392-16.536-8.48-25.44c-5.088-8.904-20.41-7.965-37.313-8.904C27.896-56.912,10.088-34.44,8.816-32.744z"/>
	</g>
	<g>
		<path fill="#F4C6A8" d="M9.544-32.096c-1.248,1.664,4.576,37.857,5.824,43.265S14.12,41.537,14.12,41.537
			c29.436-9.04,3.744-7.072,29.952-3.328C70.281,41.953,94.409,8.257,96.073-0.895c1.664-9.153-7.904-20.385-7.904-20.385
			c1.248-2.912-3.328-16.224-8.32-24.96c-4.992-8.736-20.025-7.815-36.609-8.736C28.264-55.808,10.792-33.76,9.544-32.096z"/>
	</g>
	<g>
		<path fill="#F9E2D3" d="M10.272-31.448c-1.224,1.632,4.488,37.129,5.712,42.433c1.224,5.304-1.224,29.784-1.224,29.784
			c27.868-8.92,3.672-6.936,29.376-3.264C69.841,41.177,93.505,8.129,95.137-0.848c1.632-8.976-7.752-19.992-7.752-19.992
			c1.224-2.856-3.264-15.912-8.16-24.48c-4.896-8.568-19.64-7.665-35.905-8.568C28.632-54.704,11.496-33.08,10.272-31.448z"/>
	</g>
	<g>
		<path fill="#FFFFFF" d="M44.2,36.8C69.4,40.4,92.601,8,94.201-0.8c1.6-8.8-7.6-19.6-7.6-19.6c1.2-2.8-3.201-15.6-8.001-24
			c-4.8-8.4-19.254-7.514-35.2-8.4C29-53.6,12.2-32.4,11-30.8c-1.2,1.6,4.4,36.4,5.6,41.6C17.8,16,15.4,40,15.4,40
			C40.9,31.4,19,33.2,44.2,36.8z"/>
	</g>
	<g>
		<path fill="#CCCCCC" d="M90.601,2.8c0,0-27.801,7.6-39.401,6c0,0-15.8-6.6-24.6,15.2c0,0-3.6,7.2-5.6,9.2S90.601,2.8,90.601,2.8z"
			/>
	</g>
	<g>
		<path d="M94.401,0.6c0,0-29.001,12.2-39.001,11.8c0,0-16.4-4.6-24.8,10c0,0-8.4,9.2-11.6,10.8c0,0-0.4,1.6,6-2.4L35.4,36
			c0,0,14.8,9.6,24.4-6.4c0,0,4-11.2,4-13.2s21.2-7.6,22.801-8C88.201,8,94.801,3.8,94.401,0.6z"/>
	</g>
	<g>
		<path fill="#99CC32" d="M47,36.514c-6.872,0-15.245-3.865-15.245-10.114c0-6.248,8.373-12.513,15.245-12.513
			c6.874,0,12.446,5.065,12.446,11.313C59.446,31.449,53.874,36.514,47,36.514z"/>
	</g>
	<g>
		<path fill="#659900" d="M43.377,19.83c-4.846,0.722-9.935,2.225-9.863,2.009c1.54-4.619,7.901-7.952,13.486-7.952
			c4.296,0,8.084,1.978,10.32,4.988C57.32,18.875,52.004,18.545,43.377,19.83z"/>
	</g>
	<g>
		<path fill="#FFFFFF" d="M55.4,19.6c0,0-4.4-3.2-4.4-1C51,18.6,54.6,23,55.4,19.6z"/>
	</g>
	<g>
		<path d="M45.4,27.726c-2.499,0-4.525-2.026-4.525-4.526c0-2.499,2.026-4.525,4.525-4.525c2.5,0,4.526,2.026,4.526,4.525
			C49.926,25.7,47.9,27.726,45.4,27.726z"/>
	</g>
	<g>
		<path fill="#CC7226" d="M-58.6,14.4c0,0-3.2-21.2-0.8-25.6c0,0,10.8-10,10.4-13.6c0,0-0.4-18-1.6-18.8c-1.2-0.8-8.8-6.8-14.8-0.4
			c0,0-10.4,18-9.6,24.4v2c0,0-7.6-0.4-9.2,1.6c0,0-1.2,5.2-2.4,5.6c0,0-2.8,2.4-0.8,5.2c0,0-2,2.4-1.6,6.4l7.6,4
			c0,0,2,14.4,12.8,19.6C-63.764,27.129-60.6,20.4-58.6,14.4z"/>
	</g>
	<g>
		<path fill="#FFFFFF" d="M-59.6,12.56c0,0-2.88-19.08-0.72-23.04c0,0,9.72-9,9.36-12.24c0,0-0.36-16.2-1.44-16.92
			c-1.08-0.72-7.92-6.12-13.32-0.36c0,0-9.36,16.2-8.64,21.96v1.8c0,0-6.84-0.36-8.28,1.44c0,0-1.08,4.68-2.16,5.04
			c0,0-2.52,2.16-0.72,4.68c0,0-1.8,2.16-1.44,5.76l6.84,3.6c0,0,1.8,12.96,11.52,17.64C-64.248,24.015-61.4,17.96-59.6,12.56z"/>
	</g>
	<g>
		<path fill="#EB955C" d="M-51.05-42.61c-1.09-0.86-8.58-6.63-14.43-0.39c0,0-10.14,17.55-9.36,23.79v1.95c0,0-7.41-0.39-8.97,1.56
			c0,0-1.17,5.07-2.34,5.46c0,0-2.73,2.34-0.78,5.07c0,0-1.95,2.34-1.56,6.24l7.41,3.9c0,0,1.95,14.04,12.48,19.11
			c4.714,2.27,7.8-4.29,9.75-10.14c0,0-3.12-20.67-0.78-24.96c0,0,10.53-9.75,10.14-13.26C-49.49-24.28-49.88-41.83-51.05-42.61z"/>
	</g>
	<g>
		<path fill="#F2B892" d="M-51.5-41.62c-0.98-0.92-8.36-6.46-14.06-0.38c0,0-9.88,17.1-9.12,23.18v1.9c0,0-7.22-0.38-8.74,1.52
			c0,0-1.14,4.94-2.28,5.32c0,0-2.66,2.28-0.76,4.94c0,0-1.9,2.28-1.52,6.08l7.22,3.8c0,0,1.9,13.68,12.16,18.62
			c4.594,2.212,7.6-4.18,9.5-9.88c0,0-3.04-20.14-0.76-24.32c0,0,10.26-9.5,9.88-12.92C-49.98-23.76-50.36-40.86-51.5-41.62z"/>
	</g>
	<g>
		<path fill="#F8DCC8" d="M-51.95-40.63c-0.87-0.98-8.14-6.29-13.69-0.37c0,0-9.62,16.65-8.88,22.57v1.85c0,0-7.03-0.37-8.51,1.48
			c0,0-1.11,4.81-2.22,5.18c0,0-2.59,2.22-0.74,4.81c0,0-1.85,2.22-1.48,5.92l7.03,3.7c0,0,1.85,13.32,11.84,18.13
			c4.473,2.154,7.4-4.07,9.25-9.62c0,0-2.96-19.61-0.74-23.68c0,0,9.99-9.25,9.62-12.58C-50.47-23.24-50.84-39.89-51.95-40.63z"/>
	</g>
	<g>
		<path fill="#FFFFFF" d="M-59.6,12.46c0,0-2.88-18.98-0.72-22.94c0,0,9.72-9,9.36-12.24c0,0-0.36-16.2-1.44-16.92
			c-0.76-1.04-7.92-6.12-13.32-0.36c0,0-9.36,16.2-8.64,21.96v1.8c0,0-6.84-0.36-8.28,1.44c0,0-1.08,4.68-2.16,5.04
			c0,0-2.52,2.16-0.72,4.68c0,0-1.8,2.16-1.44,5.76l6.84,3.6c0,0,1.8,12.96,11.52,17.64C-64.248,24.015-61.4,17.86-59.6,12.46z"/>
	</g>
	<g>
		<path fill="#CCCCCC" d="M-62.7,6.2c0,0-21.6-10.2-22.5-11c0,0,9.1,8.2,9.9,8.2C-74.5,3.4-62.7,6.2-62.7,6.2z"/>
	</g>
	<g>
		<path d="M-79.8,0c0,0,18.4,3.6,18.4,8c0,2.912-0.243,16.331-5.6,14.8C-75.4,20.4-71.8,6-79.8,0z"/>
	</g>
	<g>
		<path fill="#99CC32" d="M-71.4,3.8c0,0,8.978,1.474,10,4.2c0.6,1.6,1.263,9.908-4.2,11C-70.152,19.911-72.382,9.69-71.4,3.8z"/>
	</g>
	<g>
		<path d="M14.595,46.349c-0.497-1.742,0.814-1.611,2.605-2.149c2-0.6,14.2-4.4,15-7c0.8-2.6,14,1.8,14,1.8c1.8,0.8,6.2,3.4,6.2,3.4
			c4.8,1.2,11.4,1.6,11.4,1.6c2.4,1,5.8,3.8,5.8,3.8c14.6,10.2,27.001,3,27.001,3c20-6.6,14-23.8,14-23.8c-3-9,0.2-12.4,0.2-12.4
			c0.2-3.8,7.4,2.6,7.4,2.6c2.6,4.2,3.399,9.2,3.399,9.2c8,11.2,4.601-6.6,4.601-6.6c0.2-1-2.601-4.6-2.601-5.8s-1.8-4.6-1.8-4.6
			c-3-3.4-0.6-10.4-0.6-10.4c1.8-13.8-0.4-12-0.4-12c-1.2-1.8-10.399,8.2-10.399,8.2c-2.2,3.4-8.2,5-8.2,5c-2.8,1.8-6.2,0.4-6.2,0.4
			c-2.6-0.4-8.2,6.6-8.2,6.6c2.8-0.2,5.2,4.2,7.6,4.4c2.4,0.2,4.2-2.4,5.8-3c1.6-0.6,4.4,5.2,4.4,5.2c0.4,2.6-5.2,7.4-5.2,7.4
			c-0.4,4.6-2,3-2,3c-3-0.6-4.2,3.2-5.2,7.8s-5.2,5-5.2,5c-1.6,7.4-2.801,4.4-2.801,4.4C85,35.8,79,41.6,79,41.6
			c-1.2,2-5.8-0.2-5.8-0.2c-6.8-2-4.4-4-4.4-4c1.8-2.2,13,0,13,0c2.2-1.6-5.8-5.6-5.8-5.6c-0.6-1.8,0.4-6.2,0.4-6.2
			c1.2-3.2,8-8.8,8-8.8c9.401-1.2,6.601-2.8,6.601-2.8C84.801,8.8,79,16.4,79,16.4c-2.2,6.2-19.6,21.2-19.6,21.2
			c-4.8,3.4-2.2-3.4-6.2,0S28.6,32,28.6,32c-11.562-1.193-14.294,14.549-17.823,11.429C10.777,43.429,16.195,51.949,14.595,46.349z"
			/>
	</g>
	<g>
		<path d="M209.401-120c0,0-25.601,8-28.4,26.8c0,0-2.4,22.8,18,40.4c0,0,0.4,6.4,2.4,9.6c0,0-1.601,4.8,17.199-2.8l27.2-8.4
			c0,0,6.4-2.4,11.601-11.2c5.199-8.8,20.399-27.6,16.8-52.8c0,0,1.2-11.2-4.8-11.6c0,0-8.4-1.6-15.601,6c0,0-6.8,3.2-9.2,2.8
			L209.401-120z"/>
	</g>
	<g>
		<path d="M264.022-120.99c0,0,2.1-8.93-2.74-4.09c0,0-7.04,5.72-14.521,5.72c0,0-14.52,2.2-18.92,15.4c0,0-3.96,26.84,3.96,32.56
			c0,0,4.84,7.48,11.88,0.88C250.722-77.12,266.222-107.35,264.022-120.99z"/>
	</g>
	<g>
		<path fill="#323232" d="M263.648-120.632c0,0,2.09-8.744-2.662-3.992c0,0-6.912,5.616-14.258,5.616c0,0-14.256,2.16-18.575,15.12
			c0,0-3.889,26.352,3.888,31.968c0,0,4.752,7.344,11.664,0.864C250.618-77.536,265.808-107.24,263.648-120.632z"/>
	</g>
	<g>
		<path fill="#666666" d="M263.274-120.274c0,0,2.079-8.558-2.584-3.894c0,0-6.784,5.512-13.993,5.512c0,0-13.992,2.12-18.232,14.84
			c0,0-3.815,25.864,3.816,31.376c0,0,4.664,7.208,11.447,0.848C250.514-77.952,265.394-107.13,263.274-120.274z"/>
	</g>
	<g>
		<path fill="#999999" d="M262.9-119.916c0,0,2.069-8.372-2.507-3.796c0,0-6.655,5.408-13.729,5.408c0,0-13.728,2.08-17.888,14.56
			c0,0-3.744,25.376,3.744,30.784c0,0,4.575,7.072,11.231,0.832C250.41-78.368,264.98-107.02,262.9-119.916z"/>
	</g>
	<g>
		<path fill="#CCCCCC" d="M262.526-119.558c0,0,2.06-8.186-2.429-3.698c0,0-6.528,5.304-13.465,5.304c0,0-13.464,2.04-17.544,14.28
			c0,0-3.672,24.888,3.672,30.192c0,0,4.488,6.936,11.017,0.816C250.305-78.784,264.566-106.91,262.526-119.558z"/>
	</g>
	<g>
		<path fill="#FFFFFF" d="M262.151-119.2c0,0,2.05-8-2.351-3.6c0,0-6.399,5.2-13.2,5.2c0,0-13.199,2-17.199,14
			c0,0-3.601,24.4,3.6,29.6c0,0,4.4,6.8,10.8,0.8C250.201-79.2,264.151-106.8,262.151-119.2z"/>
	</g>
	<g>
		<path fill="#992600" d="M50.6,84c0,0-20.4-19.2-28.4-20c0,0-34.4-4-49.2,14c0,0,17.6-20.4,45.2-14.8c0,0-21.6-4.4-34-1.2
			c0,0-16.8,0-26.4,14l-2.8,4.8c0,0,4-14.8,22.4-20.8c0,0,22.8-4.8,33.6,0c0,0-21.6-6.8-31.6-4.8c0,0-30.4-2.4-43.2,24
			c0,0,4-14.4,18.8-21.6c0,0,13.6-8.8,34-6c0,0,14.4,3.2,19.6,5.6c5.2,2.4,4-0.4-4.4-5.2c0,0-5.6-10-19.6-9.6
			c0,0-42.8,3.6-53.2,15.6c0,0,13.6-11.2,24-14c0,0,22.4-8,30.8-7.2c0,0,24.8,1,32.4-3c0,0-11.2,5-8,8.2c3.2,3.2,10,10.8,10,12
			s24.2,23.3,27.8,27.7L50.6,84z"/>
	</g>
	<g>
		<path fill="#CCCCCC" d="M189,278c0,0-15.5-36.5-28-46c0,0,26,16,29.5,34C190.5,266,190.5,276,189,278z"/>
	</g>
	<g>
		<path fill="#CCCCCC" d="M236,285.5c0,0-26.5-55-45-79c0,0,43.5,37.5,48.5,64l0.5,5.5l-3-2.5C237,273.5,236.5,282.5,236,285.5z"/>
	</g>
	<g>
		<path fill="#CCCCCC" d="M292.5,237c0,0-62.5-59.5-64-62c0,0,60.5,66,63.5,73.5C292,248.5,290,239.5,292.5,237z"/>
	</g>
	<g>
		<path fill="#CCCCCC" d="M104,280.5c0,0,19.5-52,38.5-29.5c0,0,15,10,14.5,13c0,0-4-6.5-22-6C135,258,116,255,104,280.5z"/>
	</g>
	<g>
		<path fill="#CCCCCC" d="M294.5,153c0,0-45-28.5-52.5-30c-11.807-2.361,49.5,29,54.5,39.5C296.5,162.5,298.5,160,294.5,153z"/>
	</g>
	<g>
		<path d="M143.801,259.601c0,0,20.4-2,27.2-8.8l4.4,3.601l17.6-38.4l3.6,5.2c0,0,14.4-14.8,13.601-22.8c-0.8-8,12.8,6,12.8,6
			s-0.8-11.601,6.4-4.801c0,0-2.4-15.6,6-7.6c0,0-10.537-30.157,12-4.4c5.6,6.4,1.199-0.4,1.199-0.4s-26-48-4.399-33.6
			c0,0,2-22.8,0.8-27.2s-3.2-26.801-8-32.001c-4.8-5.2,0.4-6.8,6-1.6c0,0-11.2-24,2-12c0,0-3.6-15.2-8-18c0,0-5.6-17.2,9.6-6.4
			c0,0-4.399-12.4-7.6-15.6c0,0-11.6-27.6-4.4-22.8l4.4,3.6c0,0-6.8-14-0.4-9.6c6.4,4.4,6.4,4,6.4,4s-21.2-33.2-0.8-15.6
			c0,0-8.159-13.918-11.601-20.8c0,0-18.8-20.4-4.399-14l4.8,1.6c0,0-8.8-10-16.8-11.6s2.399-8,8.8-6s22,9.6,22,9.6
			s12.8,18.8,16.8,19.2c0,0-20-7.6-14,0.4c0,0,14.4,14,7.2,13.6c0,0-6,7.2-1.2,16c0,0-18.459-18.391-3.6,7.2l6.8,16.4
			c0,0-24.4-24.8-13.2-2.8c0,0,17.2,23.6,19.2,24c2,0.4,6.4,9.2,6.4,9.2l-4.4-2l5.2,8.8c0,0-11.2-12-5.2,1.2l5.6,14.4
			c0,0-20.399-22-6.8,7.6c0,0-16.399-5.2-7.6,12c0,0-1.601,16.001-1.2,21.201c0.4,5.2,1.6,33.6-2.8,41.6c-4.4,8,6,27.2,8,31.2
			c2,4,5.6,14.8-3.2,5.6s-4.4-3.6-2.4,5.2s8,24.399,7.2,30c0,0-1.2,1.2-4.399-2.4c0,0-14.801-22.8-13.2-8.399c0,0-1.2,8-4.4,16.8
			c0,0-3.2,10.8-3.2,2c0,0-3.199-16.8-6-9.2c-2.8,7.6-6.399,13.6-9.199,16c-2.801,2.4-8-20.4-9.2-10c0,0-12-12.4-16.8,4
			l-11.601,16.4c0,0-0.399-12.4-1.6-6.4C184.201,258.001,154.201,264.001,143.801,259.601z"/>
	</g>
	<g>
		<path d="M109.401-97.2c0,0-11.601-8-15.601-7.6c-4,0.4,27.601-8.8,68.8,18.8c0,0,4.801,2.8,8.4,2.4c0,0,3.2,2.4,0.4,6
			c0,0-8.801,9.6,2.399,20.8c0,0,18.4,6.8,12.8-2c0,0,10.801,4,13.2,8c2.4,4,1.2,0,1.2,0s-6.4-7.2-12.4-12.4c0,0-5.199-2-8-10.4
			c-2.8-8.4-5.199-18.4-0.8-21.6c0,0-4,4.4-3.2,0.4c0.801-4,4.4-7.6,6-8c1.601-0.4,18-16.2,24.801-16.6c0,0-9.2,1.4-12.2,0.4
			s-29.601-12.4-35.601-13.6c0,0-16.8-6.6-4.8-4.6c0,0,35.8,3.8,54,17c0,0-7.2-8.4-25.6-15.4c0,0-22.2-12.6-57.4-7.6
			c0,0-17.8,3.2-25.6,5c0,0-2.6-0.6-3.2-1c-0.6-0.4-12.401-9.4-40.001-2.4c0,0-17,4.6-25.6,9.4c0,0-15.2,1.2-18.8,4.4
			c0,0-18.6,14.6-20.6,15.4c-2,0.8-13.4,8.4-14.2,8.8c0,0,24.6-6.6,27-9c2.4-2.4,19.8-5,22.2-3.6c2.4,1.4,10.8,0.8,1.2,1.4
			c0,0,75.601,14.8,76.401,16.8C105.401-96,109.401-97.2,109.401-97.2z"/>
	</g>
	<g>
		<path fill="#CC7226" d="M180.801-106.4c0,0-10.2-7.4-12.2-7.4s-14.399-10.2-18.6-9.8s-16.4-9.6-43.8-1.4c0,0-0.6-2,3-2.8
			c0,0,6.399-2.2,6.8-2.8c0,0,20.2-4.2,27.4-0.6c0,0,9.199,2.6,15.399,8.8c0,0,11.2,3.2,14.4,2.2c0,0,8.8,2.2,9.2,4c0,0,5.8,3,4,5.6
			C186.401-110.6,186.801-109,180.801-106.4z"/>
	</g>
	<g>
		<path fill="#CC7226" d="M168.33-108.509c0.807,0.632,1.826,0.73,2.431,1.539c0.234,0.313-0.055,0.64-0.37,0.737
			c-1.043,0.317-2.099-0.253-3.24,0.335c-0.402,0.207-1.044,0.025-1.598-0.124c-1.632-0.441-3.461-0.466-5.151,0.222
			c-1.985-1.129-4.346-0.545-6.427-1.546c-0.058-0.027-0.279,0.319-0.354,0.292c-3.046-1.145-6.789-0.862-9.22-3.146
			c-2.429-0.412-4.785-0.874-7.214-1.554c-1.817-0.509-3.227-1.498-4.847-2.33c-1.377-0.708-2.834-1.23-4.368-1.602
			c-1.862-0.452-3.693-0.34-5.587-0.86c-0.093-0.025-0.285,0.319-0.367,0.292c-0.323-0.108-0.613-0.691-0.784-0.638
			c-1.682,0.522-3.169-0.45-4.833-0.108c-1.179-1.224-2.906-0.979-4.452-1.421c-2.964-0.848-6.118,0.422-9.148-0.579
			c4.113-1.842,8.8-0.61,12.862-2.679c2.328-1.186,4.99-0.084,7.56-0.844c0.487-0.144,1.179-0.346,1.578,0.323
			c0.134-0.135,0.316-0.374,0.374-0.346c2.45,1.157,4.766,2.431,7.247,3.497c0.341,0.146,0.873-0.086,1.125,0.116
			c1.521,1.216,3.463,1.113,4.854,2.333c1.697-0.502,3.49-0.122,5.22-0.746c0.077-0.027,0.311,0.314,0.344,0.292
			c1.13-0.748,2.285-0.477,3.177-0.173c0.339,0.115,1.001,0.362,1.307,0.436c1.126,0.276,1.981,0.756,3.161,0.939
			c0.113,0.018,0.299-0.322,0.371-0.294c1.122,0.438,2.164,0.382,2.82,1.546c0.135-0.135,0.3-0.373,0.382-0.346
			c1.027,0.338,1.677,1.093,2.777,1.334c0.485,0.106,1.097,0.732,1.673,0.908c2.393,0.731,4.235,2.26,6.43,3.155
			C166.821-109.239,167.697-109.005,168.33-108.509z"/>
	</g>
	<g>
		<path fill="#CC7226" d="M91.696-122.739c-2.518-1.725-4.886-2.831-7.328-4.617c-0.181-0.133-0.541,0.037-0.743-0.085
			c-1.007-0.609-1.895-1.19-2.877-1.886c-0.539-0.382-1.36-0.371-1.868-0.629c-2.544-1.292-5.173-1.85-7.68-3.044
			c0.682-0.638,1.804-0.394,2.4-1.2c0.195,0.28,0.433,0.564,0.786,0.373c1.678-0.904,3.528-1.057,5.204-0.967
			c1.704,0.092,3.424,0.397,5.199,0.669c0.307,0.047,0.506,0.57,0.829,0.667c2.228,0.663,4.617,0.138,6.736,0.976
			c1.591,0.629,3.161,1.452,4.4,2.727c0.252,0.26-0.073,0.561-0.353,0.755c0.388-0.109,0.661,0.097,0.772,0.41
			c0.084,0.239,0.084,0.541,0,0.78c-0.112,0.312-0.391,0.413-0.765,0.464c-1.407,0.19,0.365-1.19-0.335-0.742
			c-1.273,0.814-0.527,2.22-1.272,3.488c-0.28-0.194-0.51-0.412-0.4-0.8c0.234,0.522-0.368,0.812-0.536,1.128
			C93.48-123.547,92.581-122.132,91.696-122.739z"/>
	</g>
	<g>
		<path fill="#CC7226" d="M59.198-115.391c-3.154-0.794-6.204-0.679-9.22-1.955c-0.067-0.028-0.29,0.319-0.354,0.292
			c-1.366-0.594-2.284-1.56-3.36-2.606c-0.913-0.888-2.571-0.501-3.845-0.988c-0.324-0.124-0.527-0.636-0.828-0.675
			c-1.219-0.157-2.146-1.106-3.191-1.677c2.336-0.795,4.747-0.764,7.209-1.148c0.113-0.018,0.258,0.303,0.391,0.303
			c0.136,0,0.266-0.221,0.4-0.355c0.195,0.28,0.497,0.606,0.754,0.352c0.548-0.54,1.104-0.35,1.644-0.31
			c0.144,0.01,0.269,0.313,0.402,0.313c0.136,0,0.267-0.312,0.4-0.312c0.136,0.001,0.267,0.312,0.4,0.312
			c0.136,0,0.266-0.221,0.4-0.355c0.692,0.782,1.577,0.228,2.399,0.407c1.038,0.227,1.305,1.375,2.379,1.673
			c4.715,1.304,8.852,3.449,13.215,5.536c0.307,0.147,0.517,0.395,0.407,0.784c0.267,0,0.58-0.088,0.77,0.044
			c1.058,0.732,2.099,1.28,2.796,2.378c0.216,0.339-0.113,0.746-0.346,0.694C67.591-113.679,63.585-114.287,59.198-115.391z"/>
	</g>
	<g>
		<path fill="#CC7226" d="M45.338-71.179c-1.592-1.219-2.176-3.25-3.304-5.042c-0.214-0.34,0.06-0.654,0.377-0.743
			c0.56-0.159,1.103,0.319,1.512,0.521c1.745,0.862,3.28,2.104,5.277,2.243c1.99,2.234,6.25,2.619,6.257,6
			c0.001,0.859-1.427-0.059-1.857,0.8c-2.451-1.003-4.84-0.9-7.22-2.367C45.763-70.148,46.093-70.601,45.338-71.179z"/>
	</g>
	<g>
		<path fill="#CC7226" d="M17.8-123.756c0.135,0.001,7.166,0.234,7.149,0.348c-0.045,0.309-7.775,1.358-8.139,1.188
			c-0.164-0.076-7.676,2.354-7.81,2.22C9.268-120.135,17.534-123.756,17.8-123.756z"/>
	</g>
	<g>
		<path d="M33.2-114c0,0-14.8,1.8-19.2,3s-23,8.8-26,10.8c0,0-13.4,5.4-30.4,25.4c0,0,7.6-3.4,9.8-6.2c0,0,13.6-12.6,13.4-10
			c0,0,12.2-8.6,11.6-6.4c0,0,24.4-11.2,22.4-8c0,0,21.6-4.6,20.6-2.6c0,0,18.8,4.4,16,4.6c0,0-5.8,1.2,0.6,4.8c0,0-3.4,4.4-8.8,0.4
			c-5.4-4-2.4-1.8-7.4-0.8c0,0-2.6,0.8-7.2-3.2c0,0-5.6-4.6-14.4-1c0,0-30.6,12.6-32.6,13.2c0,0-3.6,2.8-6,6.4c0,0-5.8,4.4-8.8,5.8
			c0,0-12.8,11.6-14,13c0,0-3.4,5.2-4.2,5.6c0,0,6.4-3.8,8.4-5.8c0,0,14-10,19.4-10.8c0,0,4.4-3,5.2-4.4c0,0,14.4-9.2,18.6-9.2
			c0,0,9.2,5.2,11.6-1.8c0,0,5.8-1.8,11.4-0.6c0,0,3.2-2.6,2.4-4.8c0,0,1.6-1.8,2.6,2c0,0,3.4,3.6,8.2,1.6c0,0,4-0.2,2,2.2
			c0,0-4.4,3.8-16.2,4c0,0-12.4,0.6-28.8,8.2c0,0-29.8,10.4-39,20.8c0,0-6.4,8.8-11.8,10c0,0-5.8,0.8-11.8,8.2c0,0,9.8-5.8,18.8-5.8
			c0,0,4-2.4,0.2,1.2c0,0-3.6,7.6-2,13c0,0-0.6,5.2-1.4,6.8c0,0-7.8,12.8-7.8,15.2c0,2.4,1.2,12.2,1.6,12.8c0.4,0.6-1-1.6,2.8,0.8
			s6.6,4,7.4,6.8c0.8,2.8-2-5.4-2.2-7.2c-0.2-1.8-4.4-9-3.6-11.4c0,0,1,1,1.8,2.4c0,0-0.6-0.6,0-4.2c0,0,0.8-5.2,2.2-8.4
			c1.4-3.2,3.4-7,3.8-7.8c0.4-0.8,0.4-6.6,1.8-4l3.4,2.6c0,0-2.8-2.6-0.6-4.8c0,0-1-5.6,0.8-8.2c0,0,7-8.4,8.6-9.4s0.2-0.6,0.2-0.6
			s6-4.2,0.2-2.6c0,0-4,1.6-7,1.6c0,0-7.6,2-3.6-2.2s14-9.6,17.8-9.4l0.8,1.6l11.2-2.4l-1.2,0.8c0,0-0.2-0.2,4-0.6
			c4.2-0.4,10,1,11.4-0.8c1.4-1.8,4.8-2.8,4.4-1.4C4.2-63.8,4-61.8,4-61.8s5-5.8,4.4-3.6C7.8-63.2-0.4-58-1.8-51.8L8.6-60l3.6-3
			c0,0,3.6,2.2,3.8,0.6s4.8-7.4,6-7.2c1.2,0.2,3.2-2.6,3,0s7.4,8,7.4,8s3.2-1.8,4.6-0.4s5.6-19.8,5.6-19.8l25-10.6l43.601-3.4
			l-17-6.8L33.2-114z"/>
	</g>
	<g>
		<path fill="none" stroke="#4C0000" stroke-width="2" d="M51.4,85c0,0-15-16.8-23.4-19.4c0,0-13.4-6.8-38,1"/>
	</g>
	<g>
		<path fill="none" stroke="#4C0000" stroke-width="2" d="M24.8,64.2c0,0-25.2-8-40.6-3.8c0,0-18.4,2-26.8,15.8"/>
	</g>
	<g>
		<path fill="none" stroke="#4C0000" stroke-width="2" d="M21.2,63c0,0-17-7.2-31.8-9.4c0,0-16.6-2.6-33.2,4.6c0,0-12.2,6-17.6,16.2
			"/>
	</g>
	<g>
		<path fill="none" stroke="#4C0000" stroke-width="2" d="M22.2,63.4c0,0-15.4-11-16.4-12.4c0,0-7-11-20-11.4c0,0-21.4,0.8-38.6,8.8
			"/>
	</g>
	<g>
		<path d="M20.895,54.407C22.437,55.87,49.4,84.8,49.4,84.8c35.2,36.601,7.2,2.4,7.2,2.4C49,82.4,39.8,63.6,39.8,63.6
			c-1.2-2.8,14,7.2,14,7.2c4,0.8,17.6,20,17.6,20c-6.8-2.4-2,4.8-2,4.8c2.8,2,23.201,17.601,23.201,17.601c3.6,4,7.6,5.6,7.6,5.6
			c14-5.2,7.6,8,7.6,8c2.4,6.8,8-4.8,8-4.8c11.2-16.801-5.2-14.4-5.2-14.4C80.6,110.401,73.8,94.4,73.8,94.4c-2.4-2.4,6.4,0,6.4,0
			C88.601,96.4,73,82,73,82c2.4,0,11.6,6.8,11.6,6.8C95.001,98,97.001,96,97.001,96c18-8.8,28.4-1.2,28.4-1.2
			c2,1.6-3.601,8.4-2,13.601c1.6,5.2,6.399,17.6,6.399,17.6c-2.399,1.6-2,12.4-2,12.4c16.8,23.2,7.2,21.2,7.2,21.2
			c-15.6-0.4-0.8,7.2-0.8,7.2c3.2,2,12,9.2,12,9.2c-2.8-1.2-4.4,4-4.4,4c4.8,4,2,8.8,2,8.8c-6,1.2-7.2,5.2-7.2,5.2
			c6.801,8-3.199,8.4-3.199,8.4c3.6,4.399-1.2,16.399-1.2,16.399c-4.8,0-11.2,5.601-11.2,5.601c2.4,4.8-8,10.399-8,10.399
			c-8.4,1.601-5.6,8.4-5.6,8.4c-8,6-10.4,22-10.4,22c-0.8,10.399-3.2,13.6,2,11.6s4.4-14.399,4.4-14.399
			c-4.8-15.601,38-31.601,38-31.601c4-1.6,4.8-6.8,4.8-6.8c2,0.4,10.8,8,10.8,8c7.6,11.2,8,2,8,2c1.2-3.6-0.4-9.6-0.4-9.6
			c6-21.601-8-28-8-28c-10-33.6,4-25.2,4-25.2c2.801,5.6,13.601,10.8,13.601,10.8l3.6-2.4c-1.6-4.8,6.8-10.8,6.8-10.8
			c2.801,6.4,8.801-1.6,8.801-1.6c3.6-24.4,16-10,16-10c4,1.2,5.199-5.6,5.199-5.6c3.601-10.4,0-24,0-24
			c3.601-0.4,13.2,5.6,13.2,5.6c2.8-3.6-6.399-20.4-2.399-18c4,2.4,8.399,4,8.399,4c0.8-2-9.2-14.4-9.2-14.4
			c-4.399-2.801-9.6-23.201-9.6-23.201c7.2,3.6-2.8-11.6-2.8-11.6c0-3.2,6-14.4,6-14.4c-0.8-6.8,0-6.4,0-6.4c2.8,1.2,10.8,2.8,4-3.6
			s0.8-11.2,0.8-11.2c4.4-2.8-9.2-2.4-9.2-2.4c-5.2-4.4-4.8-8.4-4.8-8.4c8,2-6.4-12.4-8.8-16c-2.4-3.6,7.2-8.8,7.2-8.8
			c13.199-3.6,1.6-6.8,1.6-6.8c-19.6,0.4-8.8-10.4-8.8-10.4c6,0.4,4.399-2,4.399-2c-5.199-1.2-14.8-7.6-14.8-7.6
			c-4-3.6-0.399-2.8-0.399-2.8c16.8,1.2-12-10-12-10c8,0-10-10.4-10-10.4c-2-1.6-5.2-9.2-5.2-9.2c-6-5.2-10.8-12-10.8-12
			c-0.4-4.4-5.2-9.2-5.2-9.2c-11.601-13.6-17.2-13.2-17.2-13.2c-14.8-3.6-20-2.8-20-2.8L56.2-93.2C29.8-80.4,37.6-59.4,37.6-59.4
			c6.4,8.4,15.6,4.6,15.6,4.6c4.6-6.2,16.2-4,16.2-4c20.401,3.2,17.801-0.4,17.801-0.4C84.801-63.8,68.6-70,68.4-70.6
			c-0.2-0.6-9-4-9-4C56.4-75.8,52-85,52-85c-3.2-3.4,12.6,2.4,12.6,2.4c-1.2,1,6.2,5,6.2,5c17.401-1,28.001,9.8,28.001,9.8
			c10.8,16.6,11,8.4,11,8.4c2.8-9.4-9-30.6-9-30.6c0.4-2,8.601,4.6,8.601,4.6c1.399-2,2.199,3.8,2.199,3.8c0.2,2.4,4,10.4,4,10.4
			c2.801,13,6.4,5.6,6.4,5.6l4.6,9.4c1.4,2.6-4.6,10.2-4.6,10.2c-0.2,2.8,0.6,2.6-5,10.2c-5.6,7.6-2.2,12-2.2,12
			c-1.399,6.6,7.4,6.2,7.4,6.2c2.6,2.2,6,2.2,6,2.2c1.8,2,4.2,1.4,4.2,1.4c1.6-3.8,7.8-1.8,7.8-1.8c1.399-2.4,9.6-2.8,9.6-2.8
			c1-2.6,1.4-4.2,4.8-4.8c3.4-0.6-21.199-43.6-21.199-43.6c6.399-0.8-1.801-13.2-1.801-13.2c-2.199-6.6,9.2,8,11.4,9.4
			c2.2,1.4,3.2,3.6,1.6,3.4c-1.6-0.2-3.399,2-2,2.2c1.4,0.2,14.4,15.2,17.801,25.4c3.399,10.2,9.399,14.2,15.6,20.2
			s5.4,30.2,5.4,30.2c-0.4,8.8,5.6,19.4,5.6,19.4c2,3.8-2.2,22-2.2,22c-2,2.2-0.6,3-0.6,3c1,1.2,7.8,14.4,7.8,14.4
			c-1.8-0.2,1.8,3.4,1.8,3.4c5.2,6-1.2,3-1.2,3c-6-1.6,1,8.2,1,8.2c1.2,1.8-7.8-2.8-7.8-2.8c-9.2-0.6,2.4,6.6,2.4,6.6
			c8.6,7.2-2.8,2.8-2.8,2.8c-4.601-1.8-1.4,5-1.4,5c3.2,1.6,20.4,8.6,20.4,8.6c0.399,3.801-2.601,8.801-2.601,8.801
			c0.4,4-1.8,7.4-1.8,7.4c-1.2,8.2-1.8,9-1.8,9c-4.2,0.2-11.601,14-11.601,14c-1.8,2.6-12,14.6-12,14.6c-2,7-20-0.2-20-0.2
			c-6.6,3.4-4.6,0-4.6,0c-0.4-2.2,4.4-8.2,4.4-8.2c7-2.6,4.399-13.4,4.399-13.4c4-1.4-7.2-4.2-7-5.4c0.2-1.2,6-2.6,6-2.6
			c8-2,3.601-4.4,3.601-4.4c-0.601-4,2.399-9.6,2.399-9.6c11.601-0.8,0-17.001,0-17.001c-10.8-7.6-11.8-13.4-11.8-13.4
			c12.6-8.2,4.4-20.6,4.6-24.2c0.2-3.6,1.4-25.2,1.4-25.2c-2-6.2-5-19.8-5-19.8c2.2-5.2,9.6-17.8,9.6-17.8
			c2.801-4.2,11.601-9,9.4-12s-10-1.2-10-1.2c-7.8-1.4-7.2,3.8-7.2,3.8c-1.6,1-2.399,6-2.399,6c-0.722,7.933-9.601,14.2-9.601,14.2
			c-11.2,6.2-2,10.2-2,10.2c6,6.6-3.8,6.8-3.8,6.8c-11-1.8-2.8,8.4-2.8,8.4c10.8,12.8,7.8,15.6,7.8,15.6c-10.2,1,2.4,10.2,2.4,10.2
			s-0.801-2-0.601-0.2c0.2,1.8,3.2,6,4,8s-3.2,2.2-3.2,2.2c0.601,9.6-14.8,5.4-14.8,5.4s0,0-1.6,0.2c-1.601,0.2-12.8-0.6-18.601-2.8
			c-5.8-2.2-12.6-2.2-12.6-2.2s-4,1.8-11.601,1.6c-7.6-0.2-15.6,2.6-15.6,2.6c-4.4-0.4,4.2-4.8,4.4-4.6c0.2,0.2,5.8-5.4-2.2-4.8
			c-21.797,1.635-32.6-8.6-32.6-8.6c-2-1.4-4.6-4.2-4.6-4.2c-10-2,1.4,12.4,1.4,12.4c1.2,1.4-0.2,2.4-0.2,2.4c-0.8-1.6-8.6-7-8.6-7
			C24.589,58.227,23.226,56.893,20.895,54.407z"/>
	</g>
	<g>
		<path fill="#4C0000" d="M-3,42.8c0,0,11.6,5.6,14.2,8.4c2.6,2.8,16.6,14.2,16.6,14.2s-5.4-2-8-3.8c-2.6-1.8-13.4-10-13.4-10
			S2.6,45.6-3,42.8z"/>
	</g>
	<g>
		<path fill="#99CC32" d="M-61.009,11.603c0.337-0.148-0.187-2.86-0.391-3.403c-1.022-2.726-10-4.2-10-4.2
			c-0.227,1.365-0.282,2.961-0.176,4.599C-71.576,8.599-66.708,14.118-61.009,11.603z"/>
	</g>
	<g>
		<path fill="#659900" d="M-61.009,11.403c-0.449,0.158-0.015-2.734-0.191-3.203c-1.022-2.726-10.2-4.3-10.2-4.3
			c-0.227,1.365-0.282,2.961-0.176,4.599C-71.576,8.499-67.308,13.618-61.009,11.403z"/>
	</g>
	<g>
		<path d="M-65.4,11.546c-0.625,0-1.131-1.14-1.131-2.546c0-1.405,0.506-2.545,1.131-2.545s1.132,1.14,1.132,2.545
			C-64.268,10.406-64.775,11.546-65.4,11.546z"/>
	</g>
	<g>
		<path d="M-65.4,9"/>
	</g>
	<g>
		<path d="M-111,109.601c0,0-5.6,10,19.2,4c0,0,14-1.2,16.4-3.6c1.2,0.8,9.566,3.733,12.4,4.4c6.8,1.6,15.2-8.401,15.2-8.401
			s4.6-10.5,7.4-10.5c2.8,0-0.4,1.6-0.4,1.6s-6.6,10.101-6.2,11.701c0,0-5.2,20-21.2,20.8c0,0-16.15,0.95-14.8,6.8
			c0,0,8.8-2.4,11.2,0c0,0,10.8-0.4,2.8,6l-6.8,11.6c0,0,0.14,3.918-10,0.4c-9.8-3.4-20.1-16.3-20.1-16.3
			S-121.85,123.551-111,109.601z"/>
	</g>
	<g>
		<path fill="#E59999" d="M-112.2,113.601c0,0-2,9.6,34.8-0.8c0,0,4.4,0,6.8,0.8c2.4,0.8,14.4,3.6,16.4,2.4c0,0-7.2,13.6-18.8,12
			c0,0-13.2,1.6-12.8,6.4c0,0,4,7.2,8.8,9.6c0,0,2.8,2.4,2.4,5.6c-0.4,3.2-3.2,4.8-5.2,5.6c-2,0.8-5.2-2.4-6.8-2.4
			s-10-6.4-14.4-11.2c-4.4-4.8-12.8-16.8-12.4-19.6S-112.2,113.601-112.2,113.601z"/>
	</g>
	<g>
		<path fill="#B26565" d="M-109,131.051c2.6,3.95,5.8,8.15,8,10.55c4.4,4.8,12.8,11.2,14.4,11.2s4.8,3.2,6.8,2.4
			c2-0.8,4.8-2.4,5.2-5.6c0.4-3.2-2.4-5.6-2.4-5.6c-3.066-1.533-5.806-5.025-7.385-7.348c0,0,0.185,2.548-5.015,1.748
			c-5.2-0.8-10.4-3.6-12-6.8c-1.6-3.2-4-5.6-2.4-2c1.6,3.6,4,7.2,5.6,7.6c1.6,0.4,1.2,1.6-1.2,1.2s-5.2-0.8-9.6-6V131.051z"/>
	</g>
	<g>
		<path fill="#992600" d="M-111.6,110.001c0,0,1.8-13.601,3-17.601c0,0-0.8-6.8,1.6-11c2.4-4.2,4.4-10.4,7.4-15.8s3.2-9.4,7.2-11
			s10-10.2,12.8-11.2c2.8-1,2.6-0.2,2.6-0.2s6.8-14.8,20.4-10.8c0,0-16.2-2.8-0.4-12.2c0,0-4.8,1.1-1.5-5.9
			c2.201-4.668,1.7,2.1-9.3,13.9c0,0-5,8.6-10.2,11.6s-17.2,10-18.4,13.8c-1.2,3.8-4.4,9.6-6.4,11.2c-2,1.6-4.8,5.8-5.2,9.2
			c0,0-1.2,4-2.6,5.2c-1.4,1.2-1.6,4.4-1.6,6.4s-2,4.8-1.8,7.2c0,0,0.8,19.001,0.4,21.001L-111.6,110.001z"/>
	</g>
	<g>
		<path fill="#FFFFFF" d="M-120.2,114.601c0,0-2-1.4-6.4,4.6c0,0,7.3,33,7.3,34.4c0,0,1.1-2.1-0.2-9.3c-1.3-7.2-2.2-19.9-2.2-19.9
			L-120.2,114.601z"/>
	</g>
	<g>
		<path fill="#992600" d="M-98.6,54c0,0-17.6,3.2-17.2,32.4l-0.8,24.801c0,0-1.2-25.601-2.4-27.201s2.8-12.8-0.4-6.8
			c0,0-14,14-6,35.201c0,0,1.5,3.3-1.5-1.3c0,0-4.6-12.601-3.5-19.001c0,0,0.2-2.2,2.1-5c0,0,8.6-11.7,11.3-14
			c0,0,1.8-14.4,17.2-19.6C-99.8,53.5-94.1,51.2-98.6,54z"/>
	</g>
	<g>
		<path d="M40.8-12.2c0.66-0.354,0.651-1.324,1.231-1.497c1.149-0.344,1.313-1.411,1.831-2.195c0.873-1.319,1.066-2.852,1.648-4.343
			c0.272-0.7,0.299-1.655-0.014-2.315c-1.174-2.481-1.876-4.93-3.318-7.356c-0.268-0.45-0.53-1.244-0.731-1.842
			c-0.463-1.384-1.72-2.375-2.58-3.695c-0.288-0.441,0.237-1.366-0.479-1.45c-0.897-0.105-2.346-0.685-2.579,0.341
			c-0.588,2.587,0.423,5.11,1.391,7.552c-0.782,0.692-0.448,1.613-0.296,2.38c0.71,3.606-0.488,6.958-1.249,10.432
			c-0.023,0.104,0.319,0.302,0.291,0.364c-1.222,2.686-2.674,5.131-4.493,7.512c-0.758,0.992-1.63,1.908-2.127,2.971
			C28.958-4.554,28.55-3.588,28.8-2.6c-3.435,2.78-5.685,6.625-8.296,10.471c-0.462,0.68-0.171,1.889,0.38,2.158
			c0.813,0.398,1.769-0.626,2.239-1.472c0.389-0.698,0.742-1.348,1.233-1.991c0.133-0.175-0.046-0.594,0.089-0.715
			C27.078,3.504,28.747,0.568,31.2-1.8c1.95-0.329,3.487-1.327,5.235-2.34c0.308-0.179,0.832,0.07,1.122-0.125
			c1.753-1.177,1.751-3.213,1.857-5.123C39.464-10.272,39.66-11.589,40.8-12.2z"/>
	</g>
	<g>
		<path d="M31.959-16.666c0.124-0.077-0.031-0.5,0.078-0.716c0.162-0.324,0.565-0.512,0.727-0.836
			c0.109-0.216-0.054-0.596,0.082-0.738c2.333-2.447,2.59-5.471,1.554-8.444c1.024-0.62,1.085-1.882,0.66-2.729
			c-0.853-1.7-1.046-3.626-2.021-5.169c-0.802-1.269-2.38-2.513-3.751-1.21c-0.421,0.4-0.742,1.187-0.464,1.899
			c0.064,0.163,0.349,0.309,0.322,0.391c-0.107,0.324-0.653,0.548-0.659,0.82c-0.03,1.496-0.984,3.007-0.354,4.336
			c0.772,1.629,1.591,3.486,2.267,5.262c-1.234,2.116-0.201,4.565-1.954,6.442c-0.136,0.146-0.127,0.532-0.005,0.734
			c0.292,0.486,0.698,0.892,1.184,1.184c0.202,0.121,0.55,0.123,0.75-0.001C30.953-15.803,31.351-16.29,31.959-16.666z"/>
	</g>
	<g>
		<path d="M94.771-26.977c1.389,1.792,1.679,4.587-0.37,5.977c0.55,3.309,3.901,1.33,6,0.8c-0.109-0.388,0.118-0.732,0.401-0.737
			c1.057-0.015,1.737-1.047,2.799-0.863c0.434-1.557,2.072-2.259,2.716-3.639c1.726-3.695,1.135-7.968-1.449-11.214
			c-0.202-0.254,0.015-0.771-0.109-1.133c-0.756-2.211-2.824-2.526-4.758-3.214c-1.177-3.875-1.838-7.906-3.6-11.6
			c-1.614-0.25-2.312-1.989-3.649-2.709c-1.333-0.719-1.901,0.86-1.86,1.906c0.007,0.205,0.459,0.429,0.289,0.794
			c-0.076,0.164-0.336,0.275-0.336,0.409c0.001,0.135,0.222,0.266,0.356,0.4c-0.918,0.82-2.341,1.297-2.636,2.442
			c-0.954,3.71,1.619,6.835,3.287,10.036c0.591,1.135-0.145,2.406-0.905,3.614c-0.438,0.695-0.33,1.822-0.054,2.678
			C91.645-30.699,93.236-28.96,94.771-26.977z"/>
	</g>
	<g>
		<path d="M57.611-8.591c-1.487,1.851-4.899,4.42-1.982,6.348c0.194,0.129,0.564,0.133,0.737-0.001
			c2.021-1.565,4.024-2.468,6.46-3.05c0.124-0.029,0.398,0.438,0.767,0.277C65.206-5.72,67.216-5.662,68.4-7
			c3.767,0.224,7.332-0.892,10.723-2.2c1.161-0.448,2.431-1.007,3.632-1.509c1.376-0.576,2.58-1.504,3.692-2.645
			c0.133-0.136,0.487-0.046,0.754-0.046c-0.04-0.863,0.922-0.99,1.169-1.612c0.092-0.232-0.058-0.628,0.075-0.73
			c2.138-1.63,3.058-3.648,1.889-6.025c-0.285-0.578-0.534-1.196-1.1-1.672C88.149-24.35,87.047-23.496,86-23.8
			c-0.159,0.628-0.888,0.456-1.274,0.654c-0.859,0.439-2.192-0.146-3.051,0.292c-1.362,0.695-2.603,0.864-4.025,1.241
			c-0.312,0.082-1.09-0.014-1.25,0.613c-0.134-0.134-0.282-0.368-0.388-0.346c-1.908,0.396-3.168,0.61-4.469,2.302
			c-0.103,0.133-0.545-0.046-0.704,0.089c-0.957,0.808-1.362,2.042-2.463,2.714c-0.201,0.123-0.553-0.045-0.747,0.084
			c-0.646,0.431-1.013,1.072-1.655,1.519c-0.329,0.229-0.729-0.096-0.697-0.352c0.245-1.947,0.898-3.734,0.323-5.61
			c2.077-2.52,4.594-4.469,6.4-7.2c0.015-2.166,0.707-4.312,0.594-6.389c-0.01-0.193-0.298-0.926-0.424-1.273
			c-0.312-0.854,0.594-1.92-0.25-2.644c-1.404-1.203-2.696-0.327-3.52,1.106c-1.838,0.39-3.904,1.083-5.482-0.151
			c-1.007-0.787-1.585-1.693-2.384-2.749c-0.985-1.302-0.65-2.738-0.58-4.302c0.006-0.128-0.309-0.264-0.309-0.398
			c0.001-0.135,0.221-0.266,0.355-0.4c-0.706-0.626-0.981-1.684-2-2c0.305-1.092-0.371-1.976-1.242-2.278
			c-1.995-0.691-3.672,1.221-5.564,1.294c-0.514,0.019-0.981-1.019-1.63-1.344c-0.432-0.216-1.136-0.249-1.498,0.017
			c-0.688,0.504-1.277,0.618-2.035,0.823c-1.617,0.436-2.895,1.53-4.375,2.385c-1.485,0.857-2.44,2.294-3.52,3.614
			c-0.941,1.152-1.077,3.566,0.343,4.066c1.843,0.65,3.147-2.053,5.113-1.727c0.312,0.051,0.518,0.362,0.408,0.75
			c0.389,0.109,0.607-0.12,0.8-0.4c0.858,1.019,2.022,1.356,2.96,2.229c0.97,0.904,2.716,0.486,3.731,1.483
			c1.529,1.502,0.97,4.183,2.909,5.488c-0.586,1.313-1.193,2.59-1.528,4.017c-0.282,1.206,0.712,2.403,1.923,2.312
			c1.258-0.094,1.52-0.853,2.005-1.929c0.267,0.267,0.736,0.564,0.695,0.78c-0.457,2.387-1.484,4.38-1.942,6.811
			c-0.059,0.317-0.364,0.519-0.753,0.409c-0.468,4.149-4.52,6.543-7.065,9.708c-0.403,0.502-0.407,1.751,0.002,2.154
			C49.14-4.951,51.1-6.497,52.8-7c0.213-1.206,1.072-2.148,2.404-2.092c0.256,0.01,0.491-0.532,0.815-0.662
			c0.348-0.138,0.85,0.086,1.136-0.112c1.729-1.195,3.137-2.301,4.875-3.49c0.192-0.131,0.536,0.028,0.752-0.08
			c0.325-0.162,0.512-0.549,0.835-0.734c0.348-0.2,0.59,0.09,0.783,0.37c-0.646,0.349-0.65,1.306-1.232,1.508
			c-0.775,0.268-1.336,0.781-2.01,1.228c-0.292,0.193-0.951-0.055-1.055,0.124C59.505-9.912,58.321-9.474,57.611-8.591z"/>
	</g>
	<g>
		<path d="M2.2-58c0,0-9.238-2.872-20.4,22.8c0,0-2.4,5.2-4.8,7.2s-13.6,5.6-15.6,9.6L-49-2.4c0,0,14.8-16,18-18.4
			c0,0,8-8.4,4.8-1.6c0,0-14,10.8-12.8,20c0,0-5.6,14.4-6.4,16.4c0,0,16-32,18.4-33.2c2.4-1.2,3.6-1.2,2.4,2.4
			c-1.2,3.6-1.6,20-4.4,22c0,0,8-20.4,7.2-23.6c0,0,3.2-3.6,5.6,1.6l-1.2,16l4.4,12c0,0-2.4-11.2-0.8-26.8c0,0-2-10.4,2-4.8
			S1.8-8.8,1.8-4c0,0-5.2-17.6-14.4-22.4l-4,6l-1.2-2c0,0-3.6-0.8,0.8-7.6s4-7.6,4-7.6s6.4,7.2,8,7.2c0,0,13.2-7.6,14.4,16.8
			c0,0,6.8-14.4-2.4-21.2c0,0-14.8-2-13.6-7.2l7.2-12.4c3.6-5.2,2-2.4,2-2.4L2.2-58z"/>
	</g>
	<g>
		<path d="M-17.8-41.6c0,0-12.8,0-16,5.2l-7.2,9.6c0,0,17.2-10,21.2-11.2S-17.8-41.6-17.8-41.6z"/>
	</g>
	<g>
		<path d="M-57.8-35.2c0,0-2,1.2-2.4,4c-0.4,2.8-2.8,3.2-2,6c0.8,2.8,2.8,5.2,2.8,1.2s1.6-6,2.4-7.2C-56.2-32.4-54.6-36.8-57.8-35.2
			z"/>
	</g>
	<g>
		<path d="M-66.6,26c0,0-8.4-4-11.6-7.6c-3.2-3.6-2.748,1.566-7.6,1.2c-5.847-0.441-4.8-16.4-4.8-16.4l-4,7.6c0,0-1.2,14.4,6.8,12
			c3.907-1.172,5.2,0.4,3.6,1.2c-1.6,0.8,5.6,1.2,2.8,2.8c-2.8,1.6,11.6-3.6,9.2,6.8L-66.6,26z"/>
	</g>
	<g>
		<path d="M-79.2,40.4c0,0-15.4,4.4-19-5.2c0,0-4.8,2.4-2.6,5.4c2.2,3,3.4,3.4,3.4,3.4s5.4,1.2,4.8,2s-3,4.2-3,4.2
			S-85.4,44.2-79.2,40.4z"/>
	</g>
	<g>
		<path fill="#FFFFFF" d="M149.201,118.601c-0.427,2.134-2.099,2.935-4,3.6c-1.917-0.958-4.516-4.064-6.4-2
			c-0.474-0.48-1.253-0.54-1.597-1.202c-0.465-0.898-0.193-1.944-0.535-2.742c-0.545-1.272-1.254-2.638-1.068-4.056
			c1.807-0.712,2.401-2.618,1.928-4.381c-0.069-0.257-0.498-0.454-0.298-0.803c0.186-0.323,0.504-0.55,0.771-0.817
			c-0.135,0.135-0.28,0.368-0.391,0.348c-0.61-0.106-0.486-0.743-0.356-1.13c0.585-1.746,2.599-2.01,3.947-0.818
			c0.256-0.565,0.765-0.371,1.2-0.4c-0.051-0.579,0.357-1.106,0.556-1.526c0.518-1.098,2.146,0.008,2.944-0.604
			c1.075-0.825,2.139-1.524,3.217-0.921c1.809,1.013,3.518,2.225,4.717,3.966c0.575,0.834,0.815,2.115,0.757,3.073
			c-0.038,0.647-1.419,0.295-1.762,1.224c-0.646,1.748,1.186,2.267,1.942,3.605c0.197,0.349-0.066,0.653-0.382,0.751
			c-0.41,0.128-1.194-0.061-1.057,0.392C154.306,117.353,151.55,118.031,149.201,118.601z"/>
	</g>
	<g>
		<path fill="#FFFFFF" d="M139.6,138.201c-0.007-1.738-1.607-3.494-0.398-5.2c0.135,0.134,0.266,0.355,0.399,0.355
			c0.136,0,0.267-0.221,0.4-0.355c1.495,2.216,5.147,3.144,5.005,5.99c-0.021,0.447-1.108,1.365-0.205,2.01
			c-1.813,1.348-1.868,3.718-2.8,5.6c-1.238-0.286-2.45-0.649-3.6-1.2c0.352-1.486,0.234-3.17,1.055-4.49
			C139.89,140.213,139.603,139.134,139.6,138.201z"/>
	</g>
	<g>
		<path fill="#CCCCCC" d="M-26.6,129.201c0,0-16.858,10.136-2.8-5.2c8.8-9.6,18.8-15.2,18.8-15.2s10.4-4.401,14-5.601
			c3.6-1.2,18.8-6.4,22-6.8C28.6,96,38.2,92,45,96s14.8,8.4,14.8,8.4s-16.4-8.4-20-6c-3.6,2.4-10.8,2-16.8,5.2
			c0,0-14.8,4.401-18,6.401s-13.6,13.6-15.2,12.8c-1.6-0.8,0.4-1.2,1.6-4c1.2-2.8-0.8-4.4-8.8,2
			C-25.4,127.201-26.6,129.201-26.6,129.201z"/>
	</g>
	<g>
		<path d="M-19.195,123.234c0,0,1.41-13.04,9.888-11.375c0,0,8.226-4.17,10.948-6.138c0,0,8.139-1.702,9.449-2.319
			c18.479-8.7,33.198-4.181,33.745-5.301c0.546-1.119,20.171,5.998,23.78,10.084c0.391,0.443-10.231-5.597-19.929-7.488
			c-8.273-1.614-29.875,0.247-40.781,5.783c-2.973,1.509-11.918,7.293-14.449,7.182C-9.075,113.55-19.195,123.234-19.195,123.234z"
			/>
	</g>
	<g>
		<path fill="#CCCCCC" d="M-23,148.801c0,0-15.2-2.4,1.6-4c0,0,18-2,22-7.2c0,0,13.6-9.2,16.4-9.6s32.8-7.6,33.2-10
			c0.4-2.4,6-2.4,7.6-1.6c1.6,0.8,0.8,2-2,2.8c-2.8,0.8-34,17.2-40.4,18.4c-6.4,1.2-18,8.8-22.8,10
			C-12.2,148.801-23,148.801-23,148.801z"/>
	</g>
	<g>
		<path d="M-3.48,141.403c0,0-8.582-0.829,0.019-1.648c0,0,8.816-3.424,10.864-6.087c0,0,6.964-4.711,8.397-4.915
			c1.434-0.205,15.394-3.892,15.599-5.12c0.205-1.229,34.271-13.81,38.691-10.62c2.911,2.101-6.99,0.424-16.624,4.834
			c-1.355,0.62-35.208,15.207-38.485,15.821c-3.277,0.615-9.216,4.506-11.674,5.12C0.85,139.403-3.48,141.403-3.48,141.403z"/>
	</g>
	<g>
		<path d="M-11.4,143.601c0,0,5.2-0.4,4,1.2c-1.2,1.6-3.6,0.8-3.6,0.8L-11.4,143.601z"/>
	</g>
	<g>
		<path d="M-18.6,145.201c0,0,5.2-0.4,4,1.2c-1.2,1.6-3.6,0.8-3.6,0.8L-18.6,145.201z"/>
	</g>
	<g>
		<path d="M-29,146.801c0,0,5.2-0.4,4,1.2s-3.6,0.8-3.6,0.8L-29,146.801z"/>
	</g>
	<g>
		<path d="M-36.6,147.601c0,0,5.2-0.4,4,1.2c-1.2,1.6-3.6,0.8-3.6,0.8L-36.6,147.601z"/>
	</g>
	<g>
		<path d="M1.8,108.001c0,0,4.4,0,3.2,1.6s-4.4,1.2-4.4,1.2L1.8,108.001z"/>
	</g>
	<g>
		<path d="M-8.2,113.601c0,0,6.506-2.141,4,1.2c-1.2,1.6-3.6,0.8-3.6,0.8L-8.2,113.601z"/>
	</g>
	<g>
		<path d="M-19.4,118.401c0,0,5.2-0.4,4,1.2c-1.2,1.6-3.6,0.8-3.6,0.8L-19.4,118.401z"/>
	</g>
	<g>
		<path d="M-27,124.401c0,0,5.2-0.4,4,1.2s-3.6,0.8-3.6,0.8L-27,124.401z"/>
	</g>
	<g>
		<path d="M-33.8,129.201c0,0,5.2-0.4,4,1.2c-1.2,1.6-3.6,0.8-3.6,0.8L-33.8,129.201z"/>
	</g>
	<g>
		<path d="M5.282,135.598c0,0,6.921-0.532,5.324,1.597c-1.597,2.13-4.792,1.065-4.792,1.065L5.282,135.598z"/>
	</g>
	<g>
		<path d="M15.682,130.798c0,0,6.921-0.532,5.324,1.597c-1.597,2.13-4.792,1.065-4.792,1.065L15.682,130.798z"/>
	</g>
	<g>
		<path d="M26.482,126.398c0,0,6.921-0.532,5.324,1.597c-1.597,2.13-4.792,1.065-4.792,1.065L26.482,126.398z"/>
	</g>
	<g>
		<path d="M36.882,121.598c0,0,6.921-0.532,5.324,1.597c-1.597,2.13-4.792,1.065-4.792,1.065L36.882,121.598z"/>
	</g>
	<g>
		<path d="M9.282,103.598c0,0,6.921-0.532,5.324,1.597c-1.597,2.13-5.592,1.865-5.592,1.865L9.282,103.598z"/>
	</g>
	<g>
		<path d="M19.282,100.398c0,0,6.921-0.532,5.324,1.597c-1.597,2.13-5.992,1.865-5.992,1.865L19.282,100.398z"/>
	</g>
	<g>
		<path d="M-3.4,140.401c0,0,5.2-0.4,4,1.2c-1.2,1.6-3.6,0.8-3.6,0.8L-3.4,140.401z"/>
	</g>
	<g>
		<path fill="#992600" d="M-76.6,41.2c0,0-4.4,8.8-4.8,12c0,0,0.8-8.8,2-10.8C-78.2,40.4-76.6,41.2-76.6,41.2z"/>
	</g>
	<g>
		<path fill="#992600" d="M-95,55.2c0,0-3.2,14.4-2.8,17.2c0,0-1.2-11.6-0.8-12.8C-98.2,58.4-95,55.2-95,55.2z"/>
	</g>
	<g>
		<path fill="#CCCCCC" d="M-74.2-19.4l-0.2,3.2l-2.2,0.2c0,0,14.2,12.6,14.8,20.2C-61.8,4.2-61-4-74.2-19.4z"/>
	</g>
	<g>
		<path d="M-70.216-18.135c-0.431-0.416-0.212-1.161-0.62-1.421c-0.809-0.516,1.298-0.573,1.07-1.289
			c-0.383-1.206-0.196-1.228-0.318-2.503c-0.057-0.598,0.531-2.138,0.916-2.578c1.446-1.652,0.122-4.584,1.762-6.135
			c0.304-0.289,0.68-0.841,0.965-1.259c0.659-0.963,1.843-1.451,2.793-2.279c0.318-0.276,0.117-1.103,0.686-1.011
			c0.714,0.115,1.955-0.015,1.91,0.826c-0.113,2.12-1.442,3.84-2.722,5.508c0.451,0.704-0.007,1.339-0.291,1.896
			c-1.335,2.62-1.146,5.461-1.32,8.301c-0.005,0.085-0.312,0.163-0.304,0.216c0.353,2.335,0.937,4.534,1.816,6.763
			c0.366,0.93,0.837,1.825,0.987,2.752c0.111,0.686,0.214,1.519-0.194,2.224c2.035,2.89,0.726,5.541,1.895,9.072
			c0.207,0.625,1.899,2.539,1.436,2.378c-2.513-0.871-2.625-1.269-2.802-2.022c-0.146-0.623-0.476-2-0.713-2.602
			c-0.064-0.164-0.235-2.048-0.313-2.17c-1.513-2.382-0.155-2.206-1.525-4.564c-1.428-0.68-2.394-1.784-3.517-2.946
			c-0.198-0.204,0.945-0.928,0.764-1.141c-1.092-1.289-2.245-2.056-1.909-3.549C-69.609-16.358-69.472-17.415-70.216-18.135z"/>
	</g>
	<g>
		<path d="M-73.8-16.4c0,0,0.4,6.8,2.8,8.4s1.2,0.8-2-0.4c-3.2-1.2-2-2-2-2S-77.8-10-75.4-8s6,4.4,4.4,4.4s-9.2-4-9.2-6.8
			c0-2.8-1-6.9-1-6.9s1.1-0.8,5.9-0.7C-75.3-18-73.9-17.3-73.8-16.4z"/>
	</g>
	<g>
		<path fill="#FFFFFF" stroke="#000000" stroke-width="0.1" d="M-74.6,2.2c0,0-8.52-2.791-27,0.6c0,0,9.031-2.078,27.8,0.2
			C-63.5,4.25-74.6,2.2-74.6,2.2z"/>
	</g>
	<g>
		<path fill="#FFFFFF" stroke="#000000" stroke-width="0.1" d="M-72.502,2.129c0,0-8.246-3.518-26.951-1.737
			c0,0,9.178-1.289,27.679,2.603C-61.62,5.131-72.502,2.129-72.502,2.129z"/>
	</g>
	<g>
		<path fill="#FFFFFF" stroke="#000000" stroke-width="0.1" d="M-70.714,2.222c0,0-7.962-4.121-26.747-3.736
			c0,0,9.248-0.604,27.409,4.654C-60.086,6.025-70.714,2.222-70.714,2.222z"/>
	</g>
	<g>
		<path fill="#FFFFFF" stroke="#000000" stroke-width="0.1" d="M-69.444,2.445c0,0-6.824-4.307-23.698-5.405
			c0,0,8.339,0.17,24.22,6.279C-60.206,6.672-69.444,2.445-69.444,2.445z"/>
	</g>
	<g>
		<path fill="#FFFFFF" stroke="#000000" stroke-width="0.1" d="M45.84,12.961c0,0-0.93,0.644-0.716-0.537
			c0.215-1.181,28.423-14.351,32.037-14.101C77.161-1.677,46.913,11.529,45.84,12.961z"/>
	</g>
	<g>
		<path fill="#FFFFFF" stroke="#000000" stroke-width="0.1" d="M42.446,13.6c0,0-0.876,0.715-0.755-0.479
			c0.121-1.194,27.208-16.539,30.83-16.573C72.521-3.452,43.404,12.089,42.446,13.6z"/>
	</g>
	<g>
		<path fill="#FFFFFF" stroke="#000000" stroke-width="0.1" d="M39.16,14.975c0,0-0.828,0.772-0.786-0.428
			c0.042-1.199,19.859-16.696,29.671-18.57C68.045-4.023,50.015,4.104,39.16,14.975z"/>
	</g>
	<g>
		<path fill="#FFFFFF" stroke="#000000" stroke-width="0.1" d="M36.284,16.838c0,0-0.745,0.694-0.707-0.385
			C35.615,15.373,53.449,1.426,62.28-0.26C62.28-0.26,46.054,7.054,36.284,16.838z"/>
	</g>
	<g>
		<path fill="#CCCCCC" d="M4.6,164.801c0,0-15.2-2.4,1.6-4c0,0,18-2,22-7.2c0,0,13.6-9.2,16.4-9.6c2.8-0.4,19.2-4,19.6-6.4
			c0.4-2.4,6.4-4.8,8-4c1.6,0.8,1.6,10-1.2,10.8c-2.8,0.8-21.6,8-28,9.2c-6.4,1.2-18,8.8-22.8,10
			C15.4,164.801,4.6,164.801,4.6,164.801z"/>
	</g>
	<g>
		<path d="M77.6,127.401c0,0-3,1.6-4.2,4.2c0,0-6.4,10.6-20.6,13.8c0,0-23,9-30.8,11c0,0-13.4,5-20.8,4.2c0,0-7,0.2-0.8,1.8
			c0,0,20.2-2,23.6-3.8c0,0,15.6-5.2,18.6-7.8c3-2.6,21.2-7.6,23.4-9.6S78,130.801,77.6,127.401z"/>
	</g>
	<g>
		<path d="M18.882,158.911c0,0,5.229-0.226,4.076,1.323c-1.153,1.55-3.601,0.676-3.601,0.676L18.882,158.911z"/>
	</g>
	<g>
		<path d="M11.68,160.263c0,0,5.228-0.226,4.076,1.323c-1.153,1.55-3.601,0.677-3.601,0.677L11.68,160.263z"/>
	</g>
	<g>
		<path d="M1.251,161.511c0,0,5.229-0.227,4.076,1.323c-1.153,1.549-3.601,0.676-3.601,0.676L1.251,161.511z"/>
	</g>
	<g>
		<path d="M-6.383,162.055c0,0,5.229-0.226,4.076,1.323c-1.153,1.55-3.601,0.676-3.601,0.676L-6.383,162.055z"/>
	</g>
	<g>
		<path d="M35.415,151.513c0,0,6.96-0.301,5.425,1.761c-1.534,2.062-4.793,0.9-4.793,0.9L35.415,151.513z"/>
	</g>
	<g>
		<path d="M45.73,147.088c0,0,5.959-3.301,5.425,1.761c-0.27,2.556-4.793,0.9-4.793,0.9L45.73,147.088z"/>
	</g>
	<g>
		<path d="M54.862,144.274c0,0,7.159-3.701,5.425,1.761c-0.778,2.45-4.794,0.9-4.794,0.9L54.862,144.274z"/>
	</g>
	<g>
		<path d="M64.376,139.449c0,0,4.359-4.901,5.425,1.761c0.406,2.538-4.793,0.9-4.793,0.9L64.376,139.449z"/>
	</g>
	<g>
		<path d="M26.834,155.997c0,0,5.228-0.227,4.076,1.323c-1.153,1.549-3.602,0.676-3.602,0.676L26.834,155.997z"/>
	</g>
	<g>
		<path fill="#FFFFFF" stroke="#000000" stroke-width="0.1" d="M62.434,34.603c0,0-0.726,0.665-0.727-0.406
			c0-1.07,17.484-14.334,26.327-15.718C88.034,18.479,71.935,25.208,62.434,34.603z"/>
	</g>
	<g>
		<path d="M65.4,98.4c0,0,22.001,22.401,31.201,26.001c0,0,9.2,11.2,5.2,37.2c0,0-3.2,7.6-6.4-13.2c0,0,3.2-25.2-8-9.2
			c0,0-8.401-9.9-2.001-9.6c0,0,3.201,2,3.601,0.4S81.4,114.801,64.2,100.4C47,86,65.4,98.4,65.4,98.4z"/>
	</g>
	<g>
		<path fill="#FFFFFF" stroke="#000000" stroke-width="0.1" d="M7,137.201c0,0-0.2-1.8,1.6-1c1.8,0.8,96.001,7,127.601,31
			C136.201,167.201,91.001,144.001,7,137.201z"/>
	</g>
	<g>
		<path fill="#FFFFFF" stroke="#000000" stroke-width="0.1" d="M17.4,132.801c0,0-0.2-1.8,1.6-1c1.8,0.8,138.401-0.2,162.001,32.2
			C181.001,164.001,159.001,138.801,17.4,132.801z"/>
	</g>
	<g>
		<path fill="#FFFFFF" stroke="#000000" stroke-width="0.1" d="M29,128.801c0,0-0.2-1.8,1.6-1c1.8,0.8,175.201-12.2,198.801,20.2
			C229.401,148.001,219.801,122.401,29,128.801z"/>
	</g>
	<g>
		<path fill="#FFFFFF" stroke="#000000" stroke-width="0.1" d="M39,124.001c0,0-0.2-1.8,1.6-1c1.8,0.8,124-37.801,147.601-5.4
			C188.201,117.601,174.801,93,39,124.001z"/>
	</g>
	<g>
		<path fill="#FFFFFF" stroke="#000000" stroke-width="0.1" d="M-19,146.801c0,0-0.2-1.8,1.6-1c1.8,0.8,19.6,3,21.6,41.8
			C4.2,187.601-3,145.601-19,146.801z"/>
	</g>
	<g>
		<path fill="#FFFFFF" stroke="#000000" stroke-width="0.1" d="M-27.8,148.401c0,0-0.2-1.8,1.6-1c1.8,0.8,16-3.8,13.2,35
			C-13,182.401-11.8,147.201-27.8,148.401z"/>
	</g>
	<g>
		<path fill="#FFFFFF" stroke="#000000" stroke-width="0.1" d="M-35.8,148.801c0,0-0.2-1.8,1.6-1c1.8,0.8,17.2,1.4,4.8,23.8
			C-29.4,171.601-19.8,147.601-35.8,148.801z"/>
	</g>
	<g>
		<path fill="#FFFFFF" stroke="#000000" stroke-width="0.1" d="M11.526,104.465c0,0-0.444,1.999,1.105,0.782
			c16.068-12.625,48.51-71.527,104.195-77.161C116.826,28.086,78.518,15.976,11.526,104.465z"/>
	</g>
	<g>
		<path fill="#FFFFFF" stroke="#000000" stroke-width="0.1" d="M22.726,102.665c0,0-1.363-1.193,0.505-1.818
			s114.31-73.127,153.595-65.161C176.826,35.686,149.719,28.176,22.726,102.665z"/>
	</g>
	<g>
		<path fill="#FFFFFF" stroke="#000000" stroke-width="0.1" d="M1.885,108.767c0,0-0.509,1.599,1.202,0.623
			c8.975-5.12,12.59-62.331,56.167-63.586C59.254,45.804,26.843,31.09,1.885,108.767z"/>
	</g>
	<g>
		<path fill="#FFFFFF" stroke="#000000" stroke-width="0.1" d="M-18.038,119.793c0,0-1.077,1.286,0.876,1.032
			c10.246-1.332,31.651-42.603,76.09-37.524C58.928,83.301,26.962,68.955-18.038,119.793z"/>
	</g>
	<g>
		<path fill="#FFFFFF" stroke="#000000" stroke-width="0.1" d="M-6.8,113.667c0,0-0.811,1.469,1.058,0.844
			c9.799-3.274,22.883-47.886,67.471-51.433C61.729,63.078,27.603,55.135-6.8,113.667z"/>
	</g>
	<g>
		<path fill="#FFFFFF" stroke="#000000" stroke-width="0.1" d="M-25.078,124.912c0,0-0.873,1.042,0.709,0.836
			c8.299-1.079,25.637-34.508,61.633-30.394C37.264,95.354,11.371,83.734-25.078,124.912z"/>
	</g>
	<g>
		<path fill="#FFFFFF" stroke="#000000" stroke-width="0.1" d="M-32.677,130.821c0,0-1.005,1.045,0.586,0.927
			c4.168-0.309,34.806-33.388,53.274-17.886C21.183,113.862,9.168,95.139-32.677,130.821z"/>
	</g>
	<g>
		<path fill="#FFFFFF" stroke="#000000" stroke-width="0.1" d="M36.855,98.898c0,0-1.201-1.355,0.731-1.74
			c1.932-0.384,122.635-58.097,160.598-45.231C198.184,51.927,172.243,41.053,36.855,98.898z"/>
	</g>
	<g>
		<path fill="#FFFFFF" stroke="#000000" stroke-width="0.1" d="M3.4,163.201c0,0-0.2-1.8,1.6-1c1.8,0.8,17.2,1.4,4.8,23.8
			C9.8,186.001,19.4,162.001,3.4,163.201z"/>
	</g>
	<g>
		<path fill="#FFFFFF" stroke="#000000" stroke-width="0.1" d="M13.8,161.601c0,0-0.2-1.8,1.6-1c1.8,0.8,19.6,3,21.6,41.8
			C37,202.401,29.8,160.401,13.8,161.601z"/>
	</g>
	<g>
		<path fill="#FFFFFF" stroke="#000000" stroke-width="0.1" d="M20.6,160.001c0,0-0.2-1.8,1.6-1c1.8,0.8,26.4,4.2,50,36.6
			C72.2,195.601,36.6,158.801,20.6,160.001z"/>
	</g>
	<g>
		<path fill="#FFFFFF" stroke="#000000" stroke-width="0.1" d="M28.225,157.972c0,0-0.437-1.758,1.453-1.204
			c1.89,0.554,22.324-1.345,60.421,32.831C90.099,189.599,43.924,154.656,28.225,157.972z"/>
	</g>
	<g>
		<path fill="#FFFFFF" stroke="#000000" stroke-width="0.1" d="M38.625,153.572c0,0-0.437-1.758,1.453-1.204
			c1.89,0.554,36.724,5.055,88.421,40.031C128.499,192.399,54.324,150.256,38.625,153.572z"/>
	</g>
	<g>
		<path fill="#FFFFFF" stroke="#000000" stroke-width="0.1" d="M-1.8,142.001c0,0-0.2-1.8,1.6-1c1.8,0.8,55.2,3.4,85.6,30.2
			C85.4,171.201,50.499,146.426-1.8,142.001z"/>
	</g>
	<g>
		<path fill="#FFFFFF" stroke="#000000" stroke-width="0.1" d="M-11.8,146.001c0,0-0.2-1.8,1.6-1c1.8,0.8,26.4,4.2,50,36.6
			C39.8,181.601,4.2,144.801-11.8,146.001z"/>
	</g>
	<g>
		<path fill="#FFFFFF" stroke="#000000" stroke-width="0.1" d="M49.503,148.962c0,0-0.565-1.721,1.361-1.307
			c1.926,0.413,36.996,2.349,91.118,33.443C141.981,181.098,64.317,146.704,49.503,148.962z"/>
	</g>
	<g>
		<path fill="#FFFFFF" stroke="#000000" stroke-width="0.1" d="M57.903,146.562c0,0-0.565-1.721,1.361-1.307
			c1.926,0.413,36.996,2.349,91.117,33.443C150.381,178.698,73.317,143.904,57.903,146.562z"/>
	</g>
	<g>
		<path fill="#FFFFFF" stroke="#000000" stroke-width="0.1" d="M67.503,141.562c0,0-0.565-1.721,1.361-1.307
			c1.926,0.413,44.996,4.749,134.718,39.043C203.582,179.298,82.917,138.904,67.503,141.562z"/>
	</g>
	<g>
		<path d="M-43.8,148.401c0,0,5.2-0.4,4,1.2c-1.2,1.6-3.6,0.8-3.6,0.8L-43.8,148.401z"/>
	</g>
	<g>
		<path d="M-13,162.401c0,0,5.2-0.4,4,1.2s-3.6,0.8-3.6,0.8L-13,162.401z"/>
	</g>
	<g>
		<path d="M-21.8,162.001c0,0,5.2-0.4,4,1.2c-1.2,1.6-3.6,0.8-3.6,0.8L-21.8,162.001z"/>
	</g>
	<g>
		<path d="M-117.169,150.182c0,0,5.045,1.323,3.387,2.442c-1.657,1.12-3.664-0.422-3.664-0.422L-117.169,150.182z"/>
	</g>
	<g>
		<path d="M-115.169,140.582c0,0,5.045,1.323,3.387,2.442c-1.657,1.12-3.664-0.422-3.664-0.422L-115.169,140.582z"/>
	</g>
	<g>
		<path d="M-122.369,136.182c0,0,5.045,1.323,3.387,2.442c-1.657,1.12-3.664-0.422-3.664-0.422L-122.369,136.182z"/>
	</g>
	<g>
		<path fill="#CCCCCC" d="M-42.6,211.201c0,0-1.6,0-5.6,2c-2,0-13.2,3.6-18.8,13.6C-67,226.801-54.6,217.201-42.6,211.201z"/>
	</g>
	<g>
		<path fill="#CCCCCC" d="M45.116,303.847c0.141,0.259,0.196,0.679,0.488,0.695c0.658,0.04,1.891,0.341,1.766-0.295
			c-0.848-4.306-1.722-9.243-5.855-11.05c-0.639-0.279-2.081,0.134-2.155,1.018c-0.127,1.524-0.244,2.873,0.065,4.339
			c0.3,1.421,2.458,1.432,3.375,0.047C43.736,300.273,44.168,302.116,45.116,303.847z"/>
	</g>
	<g>
		<path fill="#CCCCCC" d="M34.038,308.581c0.748,1.413,0.621,3.271,2.036,3.835c0.74,0.294,2.59-0.681,2.172-1.755
			c-0.802-2.062-1.19-4.3-2.579-6.111c-0.2-0.262,0.04-0.795-0.12-1.123c-0.594-1.22-1.739-1.955-3.147-1.626
			c-1.115,2.203,0.033,4.332,1.555,6.041C34.091,307.994,33.925,308.37,34.038,308.581z"/>
	</g>
	<g>
		<path fill="#CCCCCC" d="M-5.564,303.391c-0.108-0.377-0.146-0.84,0.019-1.16c0.531-1.033,1.324-2.155,0.987-3.178
			c-0.348-1.056-1.464-0.874-2.114-0.305c-1.135,0.994-1.184,2.82-1.875,4.179c-0.196,0.386-0.145,0.959-0.586,1.351
			c-0.474,0.421-0.914,1.944-0.818,2.516c0.053,0.313-0.13,10.221,0.092,9.958c0.619-0.733,3.669-10.467,3.738-11.359
			C-6.064,304.661-5.332,304.196-5.564,303.391z"/>
	</g>
	<g>
		<path fill="#CCCCCC" d="M-31.202,296.599c2.634-2.499,5.424-5.46,4.982-9.172c-0.116-0.976-1.891-0.449-2.078,0.397
			c-0.802,3.625-2.841,6.286-5.409,8.678c-2.196,2.047-4.058,8.391-4.293,8.899C-34.303,300.145-32.046,297.399-31.202,296.599z"/>
	</g>
	<g>
		<path fill="#CCCCCC" d="M-44.776,290.635c0.523-0.37,0.221-0.86,0.438-1.192c0.953-1.458,2.254-2.704,2.272-4.442
			c0.003-0.277-0.375-0.586-0.71-0.362c-0.277,0.185-0.619,0.314-0.727,0.444c-2.03,2.449-3.43,5.12-4.873,7.932
			c-0.183,0.357-1.327,4.849-1.014,4.959c0.239,0.085,1.959-4.096,2.169-4.21C-45.958,293.077-45.946,291.462-44.776,290.635z"/>
	</g>
	<g>
		<path fill="#CCCCCC" d="M-28.043,310.179c0.444-0.869,2.02-2.07,1.907-2.96c-0.118-0.928,0.35-2.371-0.562-1.683
			c-1.257,0.948-4.706,2.297-4.976,8.104C-31.7,314.212-28.726,311.519-28.043,310.179z"/>
	</g>
	<g>
		<path fill="#CCCCCC" d="M-13.6,293.001c0.4-0.668,1.108-0.195,1.567-0.458c0.648-0.372,1.259-0.93,1.551-1.579
			c0.97-2.148,2.739-3.969,2.882-6.363c-1.491-1.404-2.17,0.636-2.8,1.601c-1.323-1.647-2.322,0.227-3.622,0.746
			c-0.07,0.027-0.283-0.319-0.358-0.292c-1.177,0.439-1.857,1.521-2.855,2.302c-0.171,0.134-0.576-0.046-0.723,0.09
			c-0.652,0.604-1.625,0.928-1.905,1.61c-1.11,2.707-4.25,4.802-6.137,12.344c0.381,0.909,4.512-6.642,4.999-7.34
			c0.836-1.196,0.954,1.661,2.23,0.995c0.051-0.027,0.237,0.211,0.371,0.345c0.194-0.28,0.412-0.509,0.8-0.4
			c0-0.399-0.134-0.956,0.067-1.114c1.237-0.978,1.153-2.045,1.933-3.285C-15.142,292.99-14.081,292.271-13.6,293.001z"/>
	</g>
	<g>
		<path fill="#CCCCCC" d="M46.2,347.401c0,0,7.4-20.4,3-31.601c0,0,11.4,21.601,6.8,32.8c0,0-0.4-10.399-4.4-15.399
			C51.6,333.201,47.6,346.001,46.2,347.401z"/>
	</g>
	<g>
		<path fill="#CCCCCC" d="M31.4,344.801c0,0,5.4-8.8-2.6-27.2c0,0-0.8,20.4-7.6,31.4C21.2,349.001,35.4,328.801,31.4,344.801z"/>
	</g>
	<g>
		<path fill="#CCCCCC" d="M21.4,342.801c0,0-0.2-20,0.2-23c0,0-3.8,16.601-14,26.2C7.6,346.001,22,334.001,21.4,342.801z"/>
	</g>
	<g>
		<path fill="#CCCCCC" d="M11.8,310.801c0,0,6,13.601-4,32c0,0,6.4-12.2,1.6-19.2C9.4,323.601,12,320.201,11.8,310.801z"/>
	</g>
	<g>
		<path fill="#CCCCCC" d="M-7.4,342.401c0,0-1-15.601,0.8-17.801c0,0,0.2-6.399-0.2-7.399c0,0,4-6.2,4.2,1.2c0,0,1.4,7.8,4.2,12.399
			c0,0,3.6,5.4,3.4,11.8C5,342.601-5,312.401-7.4,342.401z"/>
	</g>
	<g>
		<path fill="#CCCCCC" d="M-11,314.801c0,0-6.6,10.8-8.4,29.8c0,0-1.4-6.199,2.4-20.6C-17,324.001-12.8,308.601-11,314.801z"/>
	</g>
	<g>
		<path fill="#CCCCCC" d="M-32.8,334.601c0,0,5-5.399,6.4-10.399c0,0,3.6-15.8-2.8-7.2c0,0,0.2,8-8,15.4
			C-37.2,332.401-32.4,330.001-32.8,334.601z"/>
	</g>
	<g>
		<path fill="#CCCCCC" d="M-38.6,329.601c0,0,3.4-17.399,4.2-18.199c0,0,1.8-3.4-1-0.2c0,0-8.8,19.2-12.8,25.8
			C-48.2,337.001-40.2,327.801-38.6,329.601z"/>
	</g>
	<g>
		<path fill="#CCCCCC" d="M-44.4,313.001c0,0,11.6-22.4-10.2,3.4C-54.6,316.401-43.6,306.601-44.4,313.001z"/>
	</g>
	<g>
		<path fill="#CCCCCC" d="M-59.8,298.401c0,0,4.8-18.801,7.4-18.601c0,0,8.2-9,1.6,1.601c0,0-6,9.6-5.4,19.399
			C-56.2,300.801-56.8,291.201-59.8,298.401z"/>
	</g>
	<g>
		<path fill="#CCCCCC" d="M270.5,287c0,0-12-10-14.5-13.5c0,0,13.5,18.5,13.5,25.5C269.5,299,272,291.5,270.5,287z"/>
	</g>
	<g>
		<path fill="#CCCCCC" d="M276,265c0,0-21-15-24.5-22.5c0,0,26.5,29.5,26.5,34C278,276.5,278.5,267.5,276,265z"/>
	</g>
	<g>
		<path fill="#CCCCCC" d="M293,111c0,0-12-8-13.5-6c0,0,10.5,6.5,13,15C292.5,120,291,111,293,111z"/>
	</g>
	<g>
		<path fill="#CCCCCC" d="M301.5,191.5l-17.5-12c0,0,19,17,19.5,21L301.5,191.5z"/>
	</g>
	<g>
		<path fill="none" stroke="#000000" d="M-89.25,169l22,4.75"/>
	</g>
	<g>
		<path fill="none" stroke="#000000" d="M-39,331c0,0-0.5-3.5-9.5,7"/>
	</g>
	<g>
		<path fill="none" stroke="#000000" d="M-33.5,336c0,0,2-6.5-4.5-2"/>
	</g>
	<g>
		<path fill="none" stroke="#000000" d="M20.5,344.5c0,0,1.5-11-10,2"/>
	</g>
</g>
</svg>
